<?xml version="1.0" encoding="utf-8" standalone="no"?>
<!DOCTYPE svg PUBLIC "-//W3C//DTD SVG 1.1//EN"
  "http://www.w3.org/Graphics/SVG/1.1/DTD/svg11.dtd">
<svg xmlns:xlink="http://www.w3.org/1999/xlink" width="857.50375pt" height="850.731875pt" viewBox="0 0 857.50375 850.731875" xmlns="http://www.w3.org/2000/svg" version="1.1">
 <metadata>
  <rdf:RDF xmlns:dc="http://purl.org/dc/elements/1.1/" xmlns:cc="http://creativecommons.org/ns#" xmlns:rdf="http://www.w3.org/1999/02/22-rdf-syntax-ns#">
   <cc:Work>
    <dc:type rdf:resource="http://purl.org/dc/dcmitype/StillImage"/>
    <dc:date>2025-09-22T21:33:41.184804</dc:date>
    <dc:format>image/svg+xml</dc:format>
    <dc:creator>
     <cc:Agent>
      <dc:title>Matplotlib v3.8.4, https://matplotlib.org/</dc:title>
     </cc:Agent>
    </dc:creator>
   </cc:Work>
  </rdf:RDF>
 </metadata>
 <defs>
  <style type="text/css">*{stroke-linejoin: round; stroke-linecap: butt}</style>
 </defs>
 <g id="figure_1">
  <g id="patch_1">
   <path d="M 0 850.731875 
L 857.50375 850.731875 
L 857.50375 0 
L 0 0 
z
" style="fill: #ffffff"/>
  </g>
  <g id="axes_1">
   <g id="patch_2">
    <path d="M 55.26375 428.48 
L 850.30375 428.48 
L 850.30375 79.44 
L 55.26375 79.44 
z
" style="fill: #ffffff"/>
   </g>
   <g id="matplotlib.axis_1">
    <g id="xtick_1">
     <g id="line2d_1">
      <path d="M 55.26375 428.48 
L 55.26375 79.44 
" clip-path="url(#pb3478cd117)" style="fill: none; stroke: #b0b0b0; stroke-opacity: 0.3; stroke-width: 0.8; stroke-linecap: square"/>
     </g>
     <g id="line2d_2">
      <defs>
       <path id="mac80ec0676" d="M 0 0 
L 0 3.5 
" style="stroke: #000000; stroke-width: 0.8"/>
      </defs>
      <g>
       <use xlink:href="#mac80ec0676" x="55.26375" y="428.48" style="stroke: #000000; stroke-width: 0.8"/>
      </g>
     </g>
    </g>
    <g id="xtick_2">
     <g id="line2d_3">
      <path d="M 206.69994 428.48 
L 206.69994 79.44 
" clip-path="url(#pb3478cd117)" style="fill: none; stroke: #b0b0b0; stroke-opacity: 0.3; stroke-width: 0.8; stroke-linecap: square"/>
     </g>
     <g id="line2d_4">
      <g>
       <use xlink:href="#mac80ec0676" x="206.69994" y="428.48" style="stroke: #000000; stroke-width: 0.8"/>
      </g>
     </g>
    </g>
    <g id="xtick_3">
     <g id="line2d_5">
      <path d="M 358.136131 428.48 
L 358.136131 79.44 
" clip-path="url(#pb3478cd117)" style="fill: none; stroke: #b0b0b0; stroke-opacity: 0.3; stroke-width: 0.8; stroke-linecap: square"/>
     </g>
     <g id="line2d_6">
      <g>
       <use xlink:href="#mac80ec0676" x="358.136131" y="428.48" style="stroke: #000000; stroke-width: 0.8"/>
      </g>
     </g>
    </g>
    <g id="xtick_4">
     <g id="line2d_7">
      <path d="M 509.572321 428.48 
L 509.572321 79.44 
" clip-path="url(#pb3478cd117)" style="fill: none; stroke: #b0b0b0; stroke-opacity: 0.3; stroke-width: 0.8; stroke-linecap: square"/>
     </g>
     <g id="line2d_8">
      <g>
       <use xlink:href="#mac80ec0676" x="509.572321" y="428.48" style="stroke: #000000; stroke-width: 0.8"/>
      </g>
     </g>
    </g>
    <g id="xtick_5">
     <g id="line2d_9">
      <path d="M 661.008512 428.48 
L 661.008512 79.44 
" clip-path="url(#pb3478cd117)" style="fill: none; stroke: #b0b0b0; stroke-opacity: 0.3; stroke-width: 0.8; stroke-linecap: square"/>
     </g>
     <g id="line2d_10">
      <g>
       <use xlink:href="#mac80ec0676" x="661.008512" y="428.48" style="stroke: #000000; stroke-width: 0.8"/>
      </g>
     </g>
    </g>
    <g id="xtick_6">
     <g id="line2d_11">
      <path d="M 812.444702 428.48 
L 812.444702 79.44 
" clip-path="url(#pb3478cd117)" style="fill: none; stroke: #b0b0b0; stroke-opacity: 0.3; stroke-width: 0.8; stroke-linecap: square"/>
     </g>
     <g id="line2d_12">
      <g>
       <use xlink:href="#mac80ec0676" x="812.444702" y="428.48" style="stroke: #000000; stroke-width: 0.8"/>
      </g>
     </g>
    </g>
   </g>
   <g id="matplotlib.axis_2">
    <g id="ytick_1">
     <g id="line2d_13">
      <path d="M 55.26375 428.48 
L 850.30375 428.48 
" clip-path="url(#pb3478cd117)" style="fill: none; stroke: #b0b0b0; stroke-opacity: 0.3; stroke-width: 0.8; stroke-linecap: square"/>
     </g>
     <g id="line2d_14">
      <defs>
       <path id="mc8ebc627f6" d="M 0 0 
L -3.5 0 
" style="stroke: #000000; stroke-width: 0.8"/>
      </defs>
      <g>
       <use xlink:href="#mc8ebc627f6" x="55.26375" y="428.48" style="stroke: #000000; stroke-width: 0.8"/>
      </g>
     </g>
     <g id="text_1">
      <!-- 0 -->
      <g transform="translate(41.90125 432.279219) scale(0.1 -0.1)">
       <defs>
        <path id="DejaVuSans-30" d="M 2034 4250 
Q 1547 4250 1301 3770 
Q 1056 3291 1056 2328 
Q 1056 1369 1301 889 
Q 1547 409 2034 409 
Q 2525 409 2770 889 
Q 3016 1369 3016 2328 
Q 3016 3291 2770 3770 
Q 2525 4250 2034 4250 
z
M 2034 4750 
Q 2819 4750 3233 4129 
Q 3647 3509 3647 2328 
Q 3647 1150 3233 529 
Q 2819 -91 2034 -91 
Q 1250 -91 836 529 
Q 422 1150 422 2328 
Q 422 3509 836 4129 
Q 1250 4750 2034 4750 
z
" transform="scale(0.015625)"/>
       </defs>
       <use xlink:href="#DejaVuSans-30"/>
      </g>
     </g>
    </g>
    <g id="ytick_2">
     <g id="line2d_15">
      <path d="M 55.26375 361.843976 
L 850.30375 361.843976 
" clip-path="url(#pb3478cd117)" style="fill: none; stroke: #b0b0b0; stroke-opacity: 0.3; stroke-width: 0.8; stroke-linecap: square"/>
     </g>
     <g id="line2d_16">
      <g>
       <use xlink:href="#mc8ebc627f6" x="55.26375" y="361.843976" style="stroke: #000000; stroke-width: 0.8"/>
      </g>
     </g>
     <g id="text_2">
      <!-- 20 -->
      <g transform="translate(35.53875 365.643195) scale(0.1 -0.1)">
       <defs>
        <path id="DejaVuSans-32" d="M 1228 531 
L 3431 531 
L 3431 0 
L 469 0 
L 469 531 
Q 828 903 1448 1529 
Q 2069 2156 2228 2338 
Q 2531 2678 2651 2914 
Q 2772 3150 2772 3378 
Q 2772 3750 2511 3984 
Q 2250 4219 1831 4219 
Q 1534 4219 1204 4116 
Q 875 4013 500 3803 
L 500 4441 
Q 881 4594 1212 4672 
Q 1544 4750 1819 4750 
Q 2544 4750 2975 4387 
Q 3406 4025 3406 3419 
Q 3406 3131 3298 2873 
Q 3191 2616 2906 2266 
Q 2828 2175 2409 1742 
Q 1991 1309 1228 531 
z
" transform="scale(0.015625)"/>
       </defs>
       <use xlink:href="#DejaVuSans-32"/>
       <use xlink:href="#DejaVuSans-30" x="63.623047"/>
      </g>
     </g>
    </g>
    <g id="ytick_3">
     <g id="line2d_17">
      <path d="M 55.26375 295.207953 
L 850.30375 295.207953 
" clip-path="url(#pb3478cd117)" style="fill: none; stroke: #b0b0b0; stroke-opacity: 0.3; stroke-width: 0.8; stroke-linecap: square"/>
     </g>
     <g id="line2d_18">
      <g>
       <use xlink:href="#mc8ebc627f6" x="55.26375" y="295.207953" style="stroke: #000000; stroke-width: 0.8"/>
      </g>
     </g>
     <g id="text_3">
      <!-- 40 -->
      <g transform="translate(35.53875 299.007172) scale(0.1 -0.1)">
       <defs>
        <path id="DejaVuSans-34" d="M 2419 4116 
L 825 1625 
L 2419 1625 
L 2419 4116 
z
M 2253 4666 
L 3047 4666 
L 3047 1625 
L 3713 1625 
L 3713 1100 
L 3047 1100 
L 3047 0 
L 2419 0 
L 2419 1100 
L 313 1100 
L 313 1709 
L 2253 4666 
z
" transform="scale(0.015625)"/>
       </defs>
       <use xlink:href="#DejaVuSans-34"/>
       <use xlink:href="#DejaVuSans-30" x="63.623047"/>
      </g>
     </g>
    </g>
    <g id="ytick_4">
     <g id="line2d_19">
      <path d="M 55.26375 228.571929 
L 850.30375 228.571929 
" clip-path="url(#pb3478cd117)" style="fill: none; stroke: #b0b0b0; stroke-opacity: 0.3; stroke-width: 0.8; stroke-linecap: square"/>
     </g>
     <g id="line2d_20">
      <g>
       <use xlink:href="#mc8ebc627f6" x="55.26375" y="228.571929" style="stroke: #000000; stroke-width: 0.8"/>
      </g>
     </g>
     <g id="text_4">
      <!-- 60 -->
      <g transform="translate(35.53875 232.371148) scale(0.1 -0.1)">
       <defs>
        <path id="DejaVuSans-36" d="M 2113 2584 
Q 1688 2584 1439 2293 
Q 1191 2003 1191 1497 
Q 1191 994 1439 701 
Q 1688 409 2113 409 
Q 2538 409 2786 701 
Q 3034 994 3034 1497 
Q 3034 2003 2786 2293 
Q 2538 2584 2113 2584 
z
M 3366 4563 
L 3366 3988 
Q 3128 4100 2886 4159 
Q 2644 4219 2406 4219 
Q 1781 4219 1451 3797 
Q 1122 3375 1075 2522 
Q 1259 2794 1537 2939 
Q 1816 3084 2150 3084 
Q 2853 3084 3261 2657 
Q 3669 2231 3669 1497 
Q 3669 778 3244 343 
Q 2819 -91 2113 -91 
Q 1303 -91 875 529 
Q 447 1150 447 2328 
Q 447 3434 972 4092 
Q 1497 4750 2381 4750 
Q 2619 4750 2861 4703 
Q 3103 4656 3366 4563 
z
" transform="scale(0.015625)"/>
       </defs>
       <use xlink:href="#DejaVuSans-36"/>
       <use xlink:href="#DejaVuSans-30" x="63.623047"/>
      </g>
     </g>
    </g>
    <g id="ytick_5">
     <g id="line2d_21">
      <path d="M 55.26375 161.935906 
L 850.30375 161.935906 
" clip-path="url(#pb3478cd117)" style="fill: none; stroke: #b0b0b0; stroke-opacity: 0.3; stroke-width: 0.8; stroke-linecap: square"/>
     </g>
     <g id="line2d_22">
      <g>
       <use xlink:href="#mc8ebc627f6" x="55.26375" y="161.935906" style="stroke: #000000; stroke-width: 0.8"/>
      </g>
     </g>
     <g id="text_5">
      <!-- 80 -->
      <g transform="translate(35.53875 165.735124) scale(0.1 -0.1)">
       <defs>
        <path id="DejaVuSans-38" d="M 2034 2216 
Q 1584 2216 1326 1975 
Q 1069 1734 1069 1313 
Q 1069 891 1326 650 
Q 1584 409 2034 409 
Q 2484 409 2743 651 
Q 3003 894 3003 1313 
Q 3003 1734 2745 1975 
Q 2488 2216 2034 2216 
z
M 1403 2484 
Q 997 2584 770 2862 
Q 544 3141 544 3541 
Q 544 4100 942 4425 
Q 1341 4750 2034 4750 
Q 2731 4750 3128 4425 
Q 3525 4100 3525 3541 
Q 3525 3141 3298 2862 
Q 3072 2584 2669 2484 
Q 3125 2378 3379 2068 
Q 3634 1759 3634 1313 
Q 3634 634 3220 271 
Q 2806 -91 2034 -91 
Q 1263 -91 848 271 
Q 434 634 434 1313 
Q 434 1759 690 2068 
Q 947 2378 1403 2484 
z
M 1172 3481 
Q 1172 3119 1398 2916 
Q 1625 2713 2034 2713 
Q 2441 2713 2670 2916 
Q 2900 3119 2900 3481 
Q 2900 3844 2670 4047 
Q 2441 4250 2034 4250 
Q 1625 4250 1398 4047 
Q 1172 3844 1172 3481 
z
" transform="scale(0.015625)"/>
       </defs>
       <use xlink:href="#DejaVuSans-38"/>
       <use xlink:href="#DejaVuSans-30" x="63.623047"/>
      </g>
     </g>
    </g>
    <g id="ytick_6">
     <g id="line2d_23">
      <path d="M 55.26375 95.299882 
L 850.30375 95.299882 
" clip-path="url(#pb3478cd117)" style="fill: none; stroke: #b0b0b0; stroke-opacity: 0.3; stroke-width: 0.8; stroke-linecap: square"/>
     </g>
     <g id="line2d_24">
      <g>
       <use xlink:href="#mc8ebc627f6" x="55.26375" y="95.299882" style="stroke: #000000; stroke-width: 0.8"/>
      </g>
     </g>
     <g id="text_6">
      <!-- 100 -->
      <g transform="translate(29.17625 99.099101) scale(0.1 -0.1)">
       <defs>
        <path id="DejaVuSans-31" d="M 794 531 
L 1825 531 
L 1825 4091 
L 703 3866 
L 703 4441 
L 1819 4666 
L 2450 4666 
L 2450 531 
L 3481 531 
L 3481 0 
L 794 0 
L 794 531 
z
" transform="scale(0.015625)"/>
       </defs>
       <use xlink:href="#DejaVuSans-31"/>
       <use xlink:href="#DejaVuSans-30" x="63.623047"/>
       <use xlink:href="#DejaVuSans-30" x="127.246094"/>
      </g>
     </g>
    </g>
    <g id="text_7">
     <!-- Completion TPS -->
     <g transform="translate(22.680625 301.324375) rotate(-90) scale(0.12 -0.12)">
      <defs>
       <path id="DejaVuSans-43" d="M 4122 4306 
L 4122 3641 
Q 3803 3938 3442 4084 
Q 3081 4231 2675 4231 
Q 1875 4231 1450 3742 
Q 1025 3253 1025 2328 
Q 1025 1406 1450 917 
Q 1875 428 2675 428 
Q 3081 428 3442 575 
Q 3803 722 4122 1019 
L 4122 359 
Q 3791 134 3420 21 
Q 3050 -91 2638 -91 
Q 1578 -91 968 557 
Q 359 1206 359 2328 
Q 359 3453 968 4101 
Q 1578 4750 2638 4750 
Q 3056 4750 3426 4639 
Q 3797 4528 4122 4306 
z
" transform="scale(0.015625)"/>
       <path id="DejaVuSans-6f" d="M 1959 3097 
Q 1497 3097 1228 2736 
Q 959 2375 959 1747 
Q 959 1119 1226 758 
Q 1494 397 1959 397 
Q 2419 397 2687 759 
Q 2956 1122 2956 1747 
Q 2956 2369 2687 2733 
Q 2419 3097 1959 3097 
z
M 1959 3584 
Q 2709 3584 3137 3096 
Q 3566 2609 3566 1747 
Q 3566 888 3137 398 
Q 2709 -91 1959 -91 
Q 1206 -91 779 398 
Q 353 888 353 1747 
Q 353 2609 779 3096 
Q 1206 3584 1959 3584 
z
" transform="scale(0.015625)"/>
       <path id="DejaVuSans-6d" d="M 3328 2828 
Q 3544 3216 3844 3400 
Q 4144 3584 4550 3584 
Q 5097 3584 5394 3201 
Q 5691 2819 5691 2113 
L 5691 0 
L 5113 0 
L 5113 2094 
Q 5113 2597 4934 2840 
Q 4756 3084 4391 3084 
Q 3944 3084 3684 2787 
Q 3425 2491 3425 1978 
L 3425 0 
L 2847 0 
L 2847 2094 
Q 2847 2600 2669 2842 
Q 2491 3084 2119 3084 
Q 1678 3084 1418 2786 
Q 1159 2488 1159 1978 
L 1159 0 
L 581 0 
L 581 3500 
L 1159 3500 
L 1159 2956 
Q 1356 3278 1631 3431 
Q 1906 3584 2284 3584 
Q 2666 3584 2933 3390 
Q 3200 3197 3328 2828 
z
" transform="scale(0.015625)"/>
       <path id="DejaVuSans-70" d="M 1159 525 
L 1159 -1331 
L 581 -1331 
L 581 3500 
L 1159 3500 
L 1159 2969 
Q 1341 3281 1617 3432 
Q 1894 3584 2278 3584 
Q 2916 3584 3314 3078 
Q 3713 2572 3713 1747 
Q 3713 922 3314 415 
Q 2916 -91 2278 -91 
Q 1894 -91 1617 61 
Q 1341 213 1159 525 
z
M 3116 1747 
Q 3116 2381 2855 2742 
Q 2594 3103 2138 3103 
Q 1681 3103 1420 2742 
Q 1159 2381 1159 1747 
Q 1159 1113 1420 752 
Q 1681 391 2138 391 
Q 2594 391 2855 752 
Q 3116 1113 3116 1747 
z
" transform="scale(0.015625)"/>
       <path id="DejaVuSans-6c" d="M 603 4863 
L 1178 4863 
L 1178 0 
L 603 0 
L 603 4863 
z
" transform="scale(0.015625)"/>
       <path id="DejaVuSans-65" d="M 3597 1894 
L 3597 1613 
L 953 1613 
Q 991 1019 1311 708 
Q 1631 397 2203 397 
Q 2534 397 2845 478 
Q 3156 559 3463 722 
L 3463 178 
Q 3153 47 2828 -22 
Q 2503 -91 2169 -91 
Q 1331 -91 842 396 
Q 353 884 353 1716 
Q 353 2575 817 3079 
Q 1281 3584 2069 3584 
Q 2775 3584 3186 3129 
Q 3597 2675 3597 1894 
z
M 3022 2063 
Q 3016 2534 2758 2815 
Q 2500 3097 2075 3097 
Q 1594 3097 1305 2825 
Q 1016 2553 972 2059 
L 3022 2063 
z
" transform="scale(0.015625)"/>
       <path id="DejaVuSans-74" d="M 1172 4494 
L 1172 3500 
L 2356 3500 
L 2356 3053 
L 1172 3053 
L 1172 1153 
Q 1172 725 1289 603 
Q 1406 481 1766 481 
L 2356 481 
L 2356 0 
L 1766 0 
Q 1100 0 847 248 
Q 594 497 594 1153 
L 594 3053 
L 172 3053 
L 172 3500 
L 594 3500 
L 594 4494 
L 1172 4494 
z
" transform="scale(0.015625)"/>
       <path id="DejaVuSans-69" d="M 603 3500 
L 1178 3500 
L 1178 0 
L 603 0 
L 603 3500 
z
M 603 4863 
L 1178 4863 
L 1178 4134 
L 603 4134 
L 603 4863 
z
" transform="scale(0.015625)"/>
       <path id="DejaVuSans-6e" d="M 3513 2113 
L 3513 0 
L 2938 0 
L 2938 2094 
Q 2938 2591 2744 2837 
Q 2550 3084 2163 3084 
Q 1697 3084 1428 2787 
Q 1159 2491 1159 1978 
L 1159 0 
L 581 0 
L 581 3500 
L 1159 3500 
L 1159 2956 
Q 1366 3272 1645 3428 
Q 1925 3584 2291 3584 
Q 2894 3584 3203 3211 
Q 3513 2838 3513 2113 
z
" transform="scale(0.015625)"/>
       <path id="DejaVuSans-20" transform="scale(0.015625)"/>
       <path id="DejaVuSans-54" d="M -19 4666 
L 3928 4666 
L 3928 4134 
L 2272 4134 
L 2272 0 
L 1638 0 
L 1638 4134 
L -19 4134 
L -19 4666 
z
" transform="scale(0.015625)"/>
       <path id="DejaVuSans-50" d="M 1259 4147 
L 1259 2394 
L 2053 2394 
Q 2494 2394 2734 2622 
Q 2975 2850 2975 3272 
Q 2975 3691 2734 3919 
Q 2494 4147 2053 4147 
L 1259 4147 
z
M 628 4666 
L 2053 4666 
Q 2838 4666 3239 4311 
Q 3641 3956 3641 3272 
Q 3641 2581 3239 2228 
Q 2838 1875 2053 1875 
L 1259 1875 
L 1259 0 
L 628 0 
L 628 4666 
z
" transform="scale(0.015625)"/>
       <path id="DejaVuSans-53" d="M 3425 4513 
L 3425 3897 
Q 3066 4069 2747 4153 
Q 2428 4238 2131 4238 
Q 1616 4238 1336 4038 
Q 1056 3838 1056 3469 
Q 1056 3159 1242 3001 
Q 1428 2844 1947 2747 
L 2328 2669 
Q 3034 2534 3370 2195 
Q 3706 1856 3706 1288 
Q 3706 609 3251 259 
Q 2797 -91 1919 -91 
Q 1588 -91 1214 -16 
Q 841 59 441 206 
L 441 856 
Q 825 641 1194 531 
Q 1563 422 1919 422 
Q 2459 422 2753 634 
Q 3047 847 3047 1241 
Q 3047 1584 2836 1778 
Q 2625 1972 2144 2069 
L 1759 2144 
Q 1053 2284 737 2584 
Q 422 2884 422 3419 
Q 422 4038 858 4394 
Q 1294 4750 2059 4750 
Q 2388 4750 2728 4690 
Q 3069 4631 3425 4513 
z
" transform="scale(0.015625)"/>
      </defs>
      <use xlink:href="#DejaVuSans-43"/>
      <use xlink:href="#DejaVuSans-6f" x="69.824219"/>
      <use xlink:href="#DejaVuSans-6d" x="131.005859"/>
      <use xlink:href="#DejaVuSans-70" x="228.417969"/>
      <use xlink:href="#DejaVuSans-6c" x="291.894531"/>
      <use xlink:href="#DejaVuSans-65" x="319.677734"/>
      <use xlink:href="#DejaVuSans-74" x="381.201172"/>
      <use xlink:href="#DejaVuSans-69" x="420.410156"/>
      <use xlink:href="#DejaVuSans-6f" x="448.193359"/>
      <use xlink:href="#DejaVuSans-6e" x="509.375"/>
      <use xlink:href="#DejaVuSans-20" x="572.753906"/>
      <use xlink:href="#DejaVuSans-54" x="604.541016"/>
      <use xlink:href="#DejaVuSans-50" x="665.625"/>
      <use xlink:href="#DejaVuSans-53" x="725.927734"/>
     </g>
    </g>
   </g>
   <g id="line2d_25">
    <path d="M 64.728512 218.572193 
L 149.911369 285.381043 
L 244.558988 317.581122 
L 433.854226 345.213381 
L 623.149464 347.245003 
L 717.797083 363.022827 
L 812.444702 368.908209 
" clip-path="url(#pb3478cd117)" style="fill: none; stroke: #8fd694; stroke-width: 2; stroke-linecap: square"/>
    <defs>
     <path id="m18d7d28df7" d="M 0 2 
C 0.530406 2 1.03916 1.789267 1.414214 1.414214 
C 1.789267 1.03916 2 0.530406 2 0 
C 2 -0.530406 1.789267 -1.03916 1.414214 -1.414214 
C 1.03916 -1.789267 0.530406 -2 0 -2 
C -0.530406 -2 -1.03916 -1.789267 -1.414214 -1.414214 
C -1.789267 -1.03916 -2 -0.530406 -2 0 
C -2 0.530406 -1.789267 1.03916 -1.414214 1.414214 
C -1.03916 1.789267 -0.530406 2 0 2 
z
" style="stroke: #8fd694"/>
    </defs>
    <g clip-path="url(#pb3478cd117)">
     <use xlink:href="#m18d7d28df7" x="64.728512" y="218.572193" style="fill: #8fd694; stroke: #8fd694"/>
     <use xlink:href="#m18d7d28df7" x="149.911369" y="285.381043" style="fill: #8fd694; stroke: #8fd694"/>
     <use xlink:href="#m18d7d28df7" x="244.558988" y="317.581122" style="fill: #8fd694; stroke: #8fd694"/>
     <use xlink:href="#m18d7d28df7" x="433.854226" y="345.213381" style="fill: #8fd694; stroke: #8fd694"/>
     <use xlink:href="#m18d7d28df7" x="623.149464" y="347.245003" style="fill: #8fd694; stroke: #8fd694"/>
     <use xlink:href="#m18d7d28df7" x="717.797083" y="363.022827" style="fill: #8fd694; stroke: #8fd694"/>
     <use xlink:href="#m18d7d28df7" x="812.444702" y="368.908209" style="fill: #8fd694; stroke: #8fd694"/>
    </g>
   </g>
   <g id="line2d_26">
    <path d="M 64.728512 369.487027 
L 149.911369 379.819382 
L 244.558988 391.271333 
L 433.854226 402.503159 
L 623.149464 407.658804 
L 717.797083 407.393115 
L 812.444702 411.418391 
" clip-path="url(#pb3478cd117)" style="fill: none; stroke: #a39cf4; stroke-width: 2; stroke-linecap: square"/>
    <defs>
     <path id="m7d6267a7b5" d="M 0 2 
C 0.530406 2 1.03916 1.789267 1.414214 1.414214 
C 1.789267 1.03916 2 0.530406 2 0 
C 2 -0.530406 1.789267 -1.03916 1.414214 -1.414214 
C 1.03916 -1.789267 0.530406 -2 0 -2 
C -0.530406 -2 -1.03916 -1.789267 -1.414214 -1.414214 
C -1.789267 -1.03916 -2 -0.530406 -2 0 
C -2 0.530406 -1.789267 1.03916 -1.414214 1.414214 
C -1.03916 1.789267 -0.530406 2 0 2 
z
" style="stroke: #a39cf4"/>
    </defs>
    <g clip-path="url(#pb3478cd117)">
     <use xlink:href="#m7d6267a7b5" x="64.728512" y="369.487027" style="fill: #a39cf4; stroke: #a39cf4"/>
     <use xlink:href="#m7d6267a7b5" x="149.911369" y="379.819382" style="fill: #a39cf4; stroke: #a39cf4"/>
     <use xlink:href="#m7d6267a7b5" x="244.558988" y="391.271333" style="fill: #a39cf4; stroke: #a39cf4"/>
     <use xlink:href="#m7d6267a7b5" x="433.854226" y="402.503159" style="fill: #a39cf4; stroke: #a39cf4"/>
     <use xlink:href="#m7d6267a7b5" x="623.149464" y="407.658804" style="fill: #a39cf4; stroke: #a39cf4"/>
     <use xlink:href="#m7d6267a7b5" x="717.797083" y="407.393115" style="fill: #a39cf4; stroke: #a39cf4"/>
     <use xlink:href="#m7d6267a7b5" x="812.444702" y="411.418391" style="fill: #a39cf4; stroke: #a39cf4"/>
    </g>
   </g>
   <g id="line2d_27">
    <path d="M 64.728512 111.170909 
L 149.911369 257.930815 
L 244.558988 309.54376 
L 433.854226 373.22284 
L 623.149464 395.356871 
L 717.797083 399.971506 
L 812.444702 402.961422 
" clip-path="url(#pb3478cd117)" style="fill: none; stroke: #a0e7e5; stroke-width: 2; stroke-linecap: square"/>
    <defs>
     <path id="ma68f00b805" d="M 0 2 
C 0.530406 2 1.03916 1.789267 1.414214 1.414214 
C 1.789267 1.03916 2 0.530406 2 0 
C 2 -0.530406 1.789267 -1.03916 1.414214 -1.414214 
C 1.03916 -1.789267 0.530406 -2 0 -2 
C -0.530406 -2 -1.03916 -1.789267 -1.414214 -1.414214 
C -1.789267 -1.03916 -2 -0.530406 -2 0 
C -2 0.530406 -1.789267 1.03916 -1.414214 1.414214 
C -1.03916 1.789267 -0.530406 2 0 2 
z
" style="stroke: #a0e7e5"/>
    </defs>
    <g clip-path="url(#pb3478cd117)">
     <use xlink:href="#ma68f00b805" x="64.728512" y="111.170909" style="fill: #a0e7e5; stroke: #a0e7e5"/>
     <use xlink:href="#ma68f00b805" x="149.911369" y="257.930815" style="fill: #a0e7e5; stroke: #a0e7e5"/>
     <use xlink:href="#ma68f00b805" x="244.558988" y="309.54376" style="fill: #a0e7e5; stroke: #a0e7e5"/>
     <use xlink:href="#ma68f00b805" x="433.854226" y="373.22284" style="fill: #a0e7e5; stroke: #a0e7e5"/>
     <use xlink:href="#ma68f00b805" x="623.149464" y="395.356871" style="fill: #a0e7e5; stroke: #a0e7e5"/>
     <use xlink:href="#ma68f00b805" x="717.797083" y="399.971506" style="fill: #a0e7e5; stroke: #a0e7e5"/>
     <use xlink:href="#ma68f00b805" x="812.444702" y="402.961422" style="fill: #a0e7e5; stroke: #a0e7e5"/>
    </g>
   </g>
   <g id="line2d_28">
    <path d="M 64.728512 196.364439 
L 149.911369 216.857143 
L 244.558988 256.69582 
L 339.206607 265.755931 
L 433.854226 281.340241 
L 623.149464 305.5239 
L 717.797083 313.990991 
L 812.444702 323.449728 
" clip-path="url(#pb3478cd117)" style="fill: none; stroke: #f28e8e; stroke-width: 2; stroke-linecap: square"/>
    <defs>
     <path id="mf7f330645d" d="M 0 2 
C 0.530406 2 1.03916 1.789267 1.414214 1.414214 
C 1.789267 1.03916 2 0.530406 2 0 
C 2 -0.530406 1.789267 -1.03916 1.414214 -1.414214 
C 1.03916 -1.789267 0.530406 -2 0 -2 
C -0.530406 -2 -1.03916 -1.789267 -1.414214 -1.414214 
C -1.789267 -1.03916 -2 -0.530406 -2 0 
C -2 0.530406 -1.789267 1.03916 -1.414214 1.414214 
C -1.03916 1.789267 -0.530406 2 0 2 
z
" style="stroke: #f28e8e"/>
    </defs>
    <g clip-path="url(#pb3478cd117)">
     <use xlink:href="#mf7f330645d" x="64.728512" y="196.364439" style="fill: #f28e8e; stroke: #f28e8e"/>
     <use xlink:href="#mf7f330645d" x="149.911369" y="216.857143" style="fill: #f28e8e; stroke: #f28e8e"/>
     <use xlink:href="#mf7f330645d" x="244.558988" y="256.69582" style="fill: #f28e8e; stroke: #f28e8e"/>
     <use xlink:href="#mf7f330645d" x="339.206607" y="265.755931" style="fill: #f28e8e; stroke: #f28e8e"/>
     <use xlink:href="#mf7f330645d" x="433.854226" y="281.340241" style="fill: #f28e8e; stroke: #f28e8e"/>
     <use xlink:href="#mf7f330645d" x="623.149464" y="305.5239" style="fill: #f28e8e; stroke: #f28e8e"/>
     <use xlink:href="#mf7f330645d" x="717.797083" y="313.990991" style="fill: #f28e8e; stroke: #f28e8e"/>
     <use xlink:href="#mf7f330645d" x="812.444702" y="323.449728" style="fill: #f28e8e; stroke: #f28e8e"/>
    </g>
   </g>
   <g id="line2d_29">
    <path d="M 64.728512 148.433645 
L 149.911369 217.124328 
L 244.558988 277.981244 
L 433.854226 301.943869 
L 623.149464 317.21398 
L 717.797083 329.31709 
L 812.444702 349.195416 
" clip-path="url(#pb3478cd117)" style="fill: none; stroke: #f6c78f; stroke-width: 2; stroke-linecap: square"/>
    <defs>
     <path id="mf19c5d5004" d="M 0 2 
C 0.530406 2 1.03916 1.789267 1.414214 1.414214 
C 1.789267 1.03916 2 0.530406 2 0 
C 2 -0.530406 1.789267 -1.03916 1.414214 -1.414214 
C 1.03916 -1.789267 0.530406 -2 0 -2 
C -0.530406 -2 -1.03916 -1.789267 -1.414214 -1.414214 
C -1.789267 -1.03916 -2 -0.530406 -2 0 
C -2 0.530406 -1.789267 1.03916 -1.414214 1.414214 
C -1.03916 1.789267 -0.530406 2 0 2 
z
" style="stroke: #f6c78f"/>
    </defs>
    <g clip-path="url(#pb3478cd117)">
     <use xlink:href="#mf19c5d5004" x="64.728512" y="148.433645" style="fill: #f6c78f; stroke: #f6c78f"/>
     <use xlink:href="#mf19c5d5004" x="149.911369" y="217.124328" style="fill: #f6c78f; stroke: #f6c78f"/>
     <use xlink:href="#mf19c5d5004" x="244.558988" y="277.981244" style="fill: #f6c78f; stroke: #f6c78f"/>
     <use xlink:href="#mf19c5d5004" x="433.854226" y="301.943869" style="fill: #f6c78f; stroke: #f6c78f"/>
     <use xlink:href="#mf19c5d5004" x="623.149464" y="317.21398" style="fill: #f6c78f; stroke: #f6c78f"/>
     <use xlink:href="#mf19c5d5004" x="717.797083" y="329.31709" style="fill: #f6c78f; stroke: #f6c78f"/>
     <use xlink:href="#mf19c5d5004" x="812.444702" y="349.195416" style="fill: #f6c78f; stroke: #f6c78f"/>
    </g>
   </g>
   <g id="patch_3">
    <path d="M 55.26375 428.48 
L 55.26375 79.44 
" style="fill: none; stroke: #000000; stroke-width: 0.8; stroke-linejoin: miter; stroke-linecap: square"/>
   </g>
   <g id="patch_4">
    <path d="M 850.30375 428.48 
L 850.30375 79.44 
" style="fill: none; stroke: #000000; stroke-width: 0.8; stroke-linejoin: miter; stroke-linecap: square"/>
   </g>
   <g id="patch_5">
    <path d="M 55.26375 428.48 
L 850.30375 428.48 
" style="fill: none; stroke: #000000; stroke-width: 0.8; stroke-linejoin: miter; stroke-linecap: square"/>
   </g>
   <g id="patch_6">
    <path d="M 55.26375 79.44 
L 850.30375 79.44 
" style="fill: none; stroke: #000000; stroke-width: 0.8; stroke-linejoin: miter; stroke-linecap: square"/>
   </g>
   <g id="text_8">
    <!-- Generation Speed vs Context Size -->
    <g transform="translate(318.66375 73.44) scale(0.14 -0.14)">
     <defs>
      <path id="DejaVuSans-Bold-47" d="M 4781 347 
Q 4331 128 3847 18 
Q 3363 -91 2847 -91 
Q 1681 -91 1000 561 
Q 319 1213 319 2328 
Q 319 3456 1012 4103 
Q 1706 4750 2913 4750 
Q 3378 4750 3804 4662 
Q 4231 4575 4609 4403 
L 4609 3438 
Q 4219 3659 3833 3768 
Q 3447 3878 3059 3878 
Q 2341 3878 1952 3476 
Q 1563 3075 1563 2328 
Q 1563 1588 1938 1184 
Q 2313 781 3003 781 
Q 3191 781 3352 804 
Q 3513 828 3641 878 
L 3641 1784 
L 2906 1784 
L 2906 2591 
L 4781 2591 
L 4781 347 
z
" transform="scale(0.015625)"/>
      <path id="DejaVuSans-Bold-65" d="M 4031 1759 
L 4031 1441 
L 1416 1441 
Q 1456 1047 1700 850 
Q 1944 653 2381 653 
Q 2734 653 3104 758 
Q 3475 863 3866 1075 
L 3866 213 
Q 3469 63 3072 -14 
Q 2675 -91 2278 -91 
Q 1328 -91 801 392 
Q 275 875 275 1747 
Q 275 2603 792 3093 
Q 1309 3584 2216 3584 
Q 3041 3584 3536 3087 
Q 4031 2591 4031 1759 
z
M 2881 2131 
Q 2881 2450 2695 2645 
Q 2509 2841 2209 2841 
Q 1884 2841 1681 2658 
Q 1478 2475 1428 2131 
L 2881 2131 
z
" transform="scale(0.015625)"/>
      <path id="DejaVuSans-Bold-6e" d="M 4056 2131 
L 4056 0 
L 2931 0 
L 2931 347 
L 2931 1631 
Q 2931 2084 2911 2256 
Q 2891 2428 2841 2509 
Q 2775 2619 2662 2680 
Q 2550 2741 2406 2741 
Q 2056 2741 1856 2470 
Q 1656 2200 1656 1722 
L 1656 0 
L 538 0 
L 538 3500 
L 1656 3500 
L 1656 2988 
Q 1909 3294 2193 3439 
Q 2478 3584 2822 3584 
Q 3428 3584 3742 3212 
Q 4056 2841 4056 2131 
z
" transform="scale(0.015625)"/>
      <path id="DejaVuSans-Bold-72" d="M 3138 2547 
Q 2991 2616 2845 2648 
Q 2700 2681 2553 2681 
Q 2122 2681 1889 2404 
Q 1656 2128 1656 1613 
L 1656 0 
L 538 0 
L 538 3500 
L 1656 3500 
L 1656 2925 
Q 1872 3269 2151 3426 
Q 2431 3584 2822 3584 
Q 2878 3584 2943 3579 
Q 3009 3575 3134 3559 
L 3138 2547 
z
" transform="scale(0.015625)"/>
      <path id="DejaVuSans-Bold-61" d="M 2106 1575 
Q 1756 1575 1579 1456 
Q 1403 1338 1403 1106 
Q 1403 894 1545 773 
Q 1688 653 1941 653 
Q 2256 653 2472 879 
Q 2688 1106 2688 1447 
L 2688 1575 
L 2106 1575 
z
M 3816 1997 
L 3816 0 
L 2688 0 
L 2688 519 
Q 2463 200 2181 54 
Q 1900 -91 1497 -91 
Q 953 -91 614 226 
Q 275 544 275 1050 
Q 275 1666 698 1953 
Q 1122 2241 2028 2241 
L 2688 2241 
L 2688 2328 
Q 2688 2594 2478 2717 
Q 2269 2841 1825 2841 
Q 1466 2841 1156 2769 
Q 847 2697 581 2553 
L 581 3406 
Q 941 3494 1303 3539 
Q 1666 3584 2028 3584 
Q 2975 3584 3395 3211 
Q 3816 2838 3816 1997 
z
" transform="scale(0.015625)"/>
      <path id="DejaVuSans-Bold-74" d="M 1759 4494 
L 1759 3500 
L 2913 3500 
L 2913 2700 
L 1759 2700 
L 1759 1216 
Q 1759 972 1856 886 
Q 1953 800 2241 800 
L 2816 800 
L 2816 0 
L 1856 0 
Q 1194 0 917 276 
Q 641 553 641 1216 
L 641 2700 
L 84 2700 
L 84 3500 
L 641 3500 
L 641 4494 
L 1759 4494 
z
" transform="scale(0.015625)"/>
      <path id="DejaVuSans-Bold-69" d="M 538 3500 
L 1656 3500 
L 1656 0 
L 538 0 
L 538 3500 
z
M 538 4863 
L 1656 4863 
L 1656 3950 
L 538 3950 
L 538 4863 
z
" transform="scale(0.015625)"/>
      <path id="DejaVuSans-Bold-6f" d="M 2203 2784 
Q 1831 2784 1636 2517 
Q 1441 2250 1441 1747 
Q 1441 1244 1636 976 
Q 1831 709 2203 709 
Q 2569 709 2762 976 
Q 2956 1244 2956 1747 
Q 2956 2250 2762 2517 
Q 2569 2784 2203 2784 
z
M 2203 3584 
Q 3106 3584 3614 3096 
Q 4122 2609 4122 1747 
Q 4122 884 3614 396 
Q 3106 -91 2203 -91 
Q 1297 -91 786 396 
Q 275 884 275 1747 
Q 275 2609 786 3096 
Q 1297 3584 2203 3584 
z
" transform="scale(0.015625)"/>
      <path id="DejaVuSans-Bold-20" transform="scale(0.015625)"/>
      <path id="DejaVuSans-Bold-53" d="M 3834 4519 
L 3834 3531 
Q 3450 3703 3084 3790 
Q 2719 3878 2394 3878 
Q 1963 3878 1756 3759 
Q 1550 3641 1550 3391 
Q 1550 3203 1689 3098 
Q 1828 2994 2194 2919 
L 2706 2816 
Q 3484 2659 3812 2340 
Q 4141 2022 4141 1434 
Q 4141 663 3683 286 
Q 3225 -91 2284 -91 
Q 1841 -91 1394 -6 
Q 947 78 500 244 
L 500 1259 
Q 947 1022 1364 901 
Q 1781 781 2169 781 
Q 2563 781 2772 912 
Q 2981 1044 2981 1288 
Q 2981 1506 2839 1625 
Q 2697 1744 2272 1838 
L 1806 1941 
Q 1106 2091 782 2419 
Q 459 2747 459 3303 
Q 459 4000 909 4375 
Q 1359 4750 2203 4750 
Q 2588 4750 2994 4692 
Q 3400 4634 3834 4519 
z
" transform="scale(0.015625)"/>
      <path id="DejaVuSans-Bold-70" d="M 1656 506 
L 1656 -1331 
L 538 -1331 
L 538 3500 
L 1656 3500 
L 1656 2988 
Q 1888 3294 2169 3439 
Q 2450 3584 2816 3584 
Q 3463 3584 3878 3070 
Q 4294 2556 4294 1747 
Q 4294 938 3878 423 
Q 3463 -91 2816 -91 
Q 2450 -91 2169 54 
Q 1888 200 1656 506 
z
M 2400 2772 
Q 2041 2772 1848 2508 
Q 1656 2244 1656 1747 
Q 1656 1250 1848 986 
Q 2041 722 2400 722 
Q 2759 722 2948 984 
Q 3138 1247 3138 1747 
Q 3138 2247 2948 2509 
Q 2759 2772 2400 2772 
z
" transform="scale(0.015625)"/>
      <path id="DejaVuSans-Bold-64" d="M 2919 2988 
L 2919 4863 
L 4044 4863 
L 4044 0 
L 2919 0 
L 2919 506 
Q 2688 197 2409 53 
Q 2131 -91 1766 -91 
Q 1119 -91 703 423 
Q 288 938 288 1747 
Q 288 2556 703 3070 
Q 1119 3584 1766 3584 
Q 2128 3584 2408 3439 
Q 2688 3294 2919 2988 
z
M 2181 722 
Q 2541 722 2730 984 
Q 2919 1247 2919 1747 
Q 2919 2247 2730 2509 
Q 2541 2772 2181 2772 
Q 1825 2772 1636 2509 
Q 1447 2247 1447 1747 
Q 1447 1247 1636 984 
Q 1825 722 2181 722 
z
" transform="scale(0.015625)"/>
      <path id="DejaVuSans-Bold-76" d="M 97 3500 
L 1216 3500 
L 2088 1081 
L 2956 3500 
L 4078 3500 
L 2700 0 
L 1472 0 
L 97 3500 
z
" transform="scale(0.015625)"/>
      <path id="DejaVuSans-Bold-73" d="M 3272 3391 
L 3272 2541 
Q 2913 2691 2578 2766 
Q 2244 2841 1947 2841 
Q 1628 2841 1473 2761 
Q 1319 2681 1319 2516 
Q 1319 2381 1436 2309 
Q 1553 2238 1856 2203 
L 2053 2175 
Q 2913 2066 3209 1816 
Q 3506 1566 3506 1031 
Q 3506 472 3093 190 
Q 2681 -91 1863 -91 
Q 1516 -91 1145 -36 
Q 775 19 384 128 
L 384 978 
Q 719 816 1070 734 
Q 1422 653 1784 653 
Q 2113 653 2278 743 
Q 2444 834 2444 1013 
Q 2444 1163 2330 1236 
Q 2216 1309 1875 1350 
L 1678 1375 
Q 931 1469 631 1722 
Q 331 1975 331 2491 
Q 331 3047 712 3315 
Q 1094 3584 1881 3584 
Q 2191 3584 2531 3537 
Q 2872 3491 3272 3391 
z
" transform="scale(0.015625)"/>
      <path id="DejaVuSans-Bold-43" d="M 4288 256 
Q 3956 84 3597 -3 
Q 3238 -91 2847 -91 
Q 1681 -91 1000 561 
Q 319 1213 319 2328 
Q 319 3447 1000 4098 
Q 1681 4750 2847 4750 
Q 3238 4750 3597 4662 
Q 3956 4575 4288 4403 
L 4288 3438 
Q 3953 3666 3628 3772 
Q 3303 3878 2944 3878 
Q 2300 3878 1931 3465 
Q 1563 3053 1563 2328 
Q 1563 1606 1931 1193 
Q 2300 781 2944 781 
Q 3303 781 3628 887 
Q 3953 994 4288 1222 
L 4288 256 
z
" transform="scale(0.015625)"/>
      <path id="DejaVuSans-Bold-78" d="M 1422 1791 
L 159 3500 
L 1344 3500 
L 2059 2463 
L 2784 3500 
L 3969 3500 
L 2706 1797 
L 4031 0 
L 2847 0 
L 2059 1106 
L 1281 0 
L 97 0 
L 1422 1791 
z
" transform="scale(0.015625)"/>
      <path id="DejaVuSans-Bold-7a" d="M 366 3500 
L 3419 3500 
L 3419 2719 
L 1575 800 
L 3419 800 
L 3419 0 
L 288 0 
L 288 781 
L 2131 2700 
L 366 2700 
L 366 3500 
z
" transform="scale(0.015625)"/>
     </defs>
     <use xlink:href="#DejaVuSans-Bold-47"/>
     <use xlink:href="#DejaVuSans-Bold-65" x="82.080078"/>
     <use xlink:href="#DejaVuSans-Bold-6e" x="149.902344"/>
     <use xlink:href="#DejaVuSans-Bold-65" x="221.09375"/>
     <use xlink:href="#DejaVuSans-Bold-72" x="288.916016"/>
     <use xlink:href="#DejaVuSans-Bold-61" x="338.232422"/>
     <use xlink:href="#DejaVuSans-Bold-74" x="405.712891"/>
     <use xlink:href="#DejaVuSans-Bold-69" x="453.515625"/>
     <use xlink:href="#DejaVuSans-Bold-6f" x="487.792969"/>
     <use xlink:href="#DejaVuSans-Bold-6e" x="556.494141"/>
     <use xlink:href="#DejaVuSans-Bold-20" x="627.685547"/>
     <use xlink:href="#DejaVuSans-Bold-53" x="662.5"/>
     <use xlink:href="#DejaVuSans-Bold-70" x="734.521484"/>
     <use xlink:href="#DejaVuSans-Bold-65" x="806.103516"/>
     <use xlink:href="#DejaVuSans-Bold-65" x="873.925781"/>
     <use xlink:href="#DejaVuSans-Bold-64" x="941.748047"/>
     <use xlink:href="#DejaVuSans-Bold-20" x="1013.330078"/>
     <use xlink:href="#DejaVuSans-Bold-76" x="1048.144531"/>
     <use xlink:href="#DejaVuSans-Bold-73" x="1113.330078"/>
     <use xlink:href="#DejaVuSans-Bold-20" x="1172.851562"/>
     <use xlink:href="#DejaVuSans-Bold-43" x="1207.666016"/>
     <use xlink:href="#DejaVuSans-Bold-6f" x="1281.054688"/>
     <use xlink:href="#DejaVuSans-Bold-6e" x="1349.755859"/>
     <use xlink:href="#DejaVuSans-Bold-74" x="1420.947266"/>
     <use xlink:href="#DejaVuSans-Bold-65" x="1468.75"/>
     <use xlink:href="#DejaVuSans-Bold-78" x="1536.572266"/>
     <use xlink:href="#DejaVuSans-Bold-74" x="1601.074219"/>
     <use xlink:href="#DejaVuSans-Bold-20" x="1648.876953"/>
     <use xlink:href="#DejaVuSans-Bold-53" x="1683.691406"/>
     <use xlink:href="#DejaVuSans-Bold-69" x="1755.712891"/>
     <use xlink:href="#DejaVuSans-Bold-7a" x="1789.990234"/>
     <use xlink:href="#DejaVuSans-Bold-65" x="1848.193359"/>
    </g>
   </g>
   <g id="legend_1">
    <g id="patch_7">
     <path d="M 683.106875 160.830625 
L 843.30375 160.830625 
Q 845.30375 160.830625 845.30375 158.830625 
L 845.30375 86.44 
Q 845.30375 84.44 843.30375 84.44 
L 683.106875 84.44 
Q 681.106875 84.44 681.106875 86.44 
L 681.106875 158.830625 
Q 681.106875 160.830625 683.106875 160.830625 
z
" style="fill: #ffffff; opacity: 0.8; stroke: #cccccc; stroke-linejoin: miter"/>
    </g>
    <g id="line2d_30">
     <path d="M 685.106875 92.538438 
L 695.106875 92.538438 
L 705.106875 92.538438 
" style="fill: none; stroke: #8fd694; stroke-width: 2; stroke-linecap: square"/>
     <g>
      <use xlink:href="#m18d7d28df7" x="695.106875" y="92.538438" style="fill: #8fd694; stroke: #8fd694"/>
     </g>
    </g>
    <g id="text_9">
     <!-- GPT-OSS 120B MXFP4 -->
     <g transform="translate(713.106875 96.038438) scale(0.1 -0.1)">
      <defs>
       <path id="DejaVuSans-47" d="M 3809 666 
L 3809 1919 
L 2778 1919 
L 2778 2438 
L 4434 2438 
L 4434 434 
Q 4069 175 3628 42 
Q 3188 -91 2688 -91 
Q 1594 -91 976 548 
Q 359 1188 359 2328 
Q 359 3472 976 4111 
Q 1594 4750 2688 4750 
Q 3144 4750 3555 4637 
Q 3966 4525 4313 4306 
L 4313 3634 
Q 3963 3931 3569 4081 
Q 3175 4231 2741 4231 
Q 1884 4231 1454 3753 
Q 1025 3275 1025 2328 
Q 1025 1384 1454 906 
Q 1884 428 2741 428 
Q 3075 428 3337 486 
Q 3600 544 3809 666 
z
" transform="scale(0.015625)"/>
       <path id="DejaVuSans-2d" d="M 313 2009 
L 1997 2009 
L 1997 1497 
L 313 1497 
L 313 2009 
z
" transform="scale(0.015625)"/>
       <path id="DejaVuSans-4f" d="M 2522 4238 
Q 1834 4238 1429 3725 
Q 1025 3213 1025 2328 
Q 1025 1447 1429 934 
Q 1834 422 2522 422 
Q 3209 422 3611 934 
Q 4013 1447 4013 2328 
Q 4013 3213 3611 3725 
Q 3209 4238 2522 4238 
z
M 2522 4750 
Q 3503 4750 4090 4092 
Q 4678 3434 4678 2328 
Q 4678 1225 4090 567 
Q 3503 -91 2522 -91 
Q 1538 -91 948 565 
Q 359 1222 359 2328 
Q 359 3434 948 4092 
Q 1538 4750 2522 4750 
z
" transform="scale(0.015625)"/>
       <path id="DejaVuSans-42" d="M 1259 2228 
L 1259 519 
L 2272 519 
Q 2781 519 3026 730 
Q 3272 941 3272 1375 
Q 3272 1813 3026 2020 
Q 2781 2228 2272 2228 
L 1259 2228 
z
M 1259 4147 
L 1259 2741 
L 2194 2741 
Q 2656 2741 2882 2914 
Q 3109 3088 3109 3444 
Q 3109 3797 2882 3972 
Q 2656 4147 2194 4147 
L 1259 4147 
z
M 628 4666 
L 2241 4666 
Q 2963 4666 3353 4366 
Q 3744 4066 3744 3513 
Q 3744 3084 3544 2831 
Q 3344 2578 2956 2516 
Q 3422 2416 3680 2098 
Q 3938 1781 3938 1306 
Q 3938 681 3513 340 
Q 3088 0 2303 0 
L 628 0 
L 628 4666 
z
" transform="scale(0.015625)"/>
       <path id="DejaVuSans-4d" d="M 628 4666 
L 1569 4666 
L 2759 1491 
L 3956 4666 
L 4897 4666 
L 4897 0 
L 4281 0 
L 4281 4097 
L 3078 897 
L 2444 897 
L 1241 4097 
L 1241 0 
L 628 0 
L 628 4666 
z
" transform="scale(0.015625)"/>
       <path id="DejaVuSans-58" d="M 403 4666 
L 1081 4666 
L 2241 2931 
L 3406 4666 
L 4084 4666 
L 2584 2425 
L 4184 0 
L 3506 0 
L 2194 1984 
L 872 0 
L 191 0 
L 1856 2491 
L 403 4666 
z
" transform="scale(0.015625)"/>
       <path id="DejaVuSans-46" d="M 628 4666 
L 3309 4666 
L 3309 4134 
L 1259 4134 
L 1259 2759 
L 3109 2759 
L 3109 2228 
L 1259 2228 
L 1259 0 
L 628 0 
L 628 4666 
z
" transform="scale(0.015625)"/>
      </defs>
      <use xlink:href="#DejaVuSans-47"/>
      <use xlink:href="#DejaVuSans-50" x="77.490234"/>
      <use xlink:href="#DejaVuSans-54" x="137.792969"/>
      <use xlink:href="#DejaVuSans-2d" x="189.751953"/>
      <use xlink:href="#DejaVuSans-4f" x="228.585938"/>
      <use xlink:href="#DejaVuSans-53" x="307.296875"/>
      <use xlink:href="#DejaVuSans-53" x="370.773438"/>
      <use xlink:href="#DejaVuSans-20" x="434.25"/>
      <use xlink:href="#DejaVuSans-31" x="466.037109"/>
      <use xlink:href="#DejaVuSans-32" x="529.660156"/>
      <use xlink:href="#DejaVuSans-30" x="593.283203"/>
      <use xlink:href="#DejaVuSans-42" x="656.90625"/>
      <use xlink:href="#DejaVuSans-20" x="725.509766"/>
      <use xlink:href="#DejaVuSans-4d" x="757.296875"/>
      <use xlink:href="#DejaVuSans-58" x="843.576172"/>
      <use xlink:href="#DejaVuSans-46" x="912.082031"/>
      <use xlink:href="#DejaVuSans-50" x="969.601562"/>
      <use xlink:href="#DejaVuSans-34" x="1029.904297"/>
     </g>
    </g>
    <g id="line2d_31">
     <path d="M 685.106875 107.216563 
L 695.106875 107.216563 
L 705.106875 107.216563 
" style="fill: none; stroke: #a39cf4; stroke-width: 2; stroke-linecap: square"/>
     <g>
      <use xlink:href="#m7d6267a7b5" x="695.106875" y="107.216563" style="fill: #a39cf4; stroke: #a39cf4"/>
     </g>
    </g>
    <g id="text_10">
     <!-- Magistral Small 2509 4bit -->
     <g transform="translate(713.106875 110.716563) scale(0.1 -0.1)">
      <defs>
       <path id="DejaVuSans-61" d="M 2194 1759 
Q 1497 1759 1228 1600 
Q 959 1441 959 1056 
Q 959 750 1161 570 
Q 1363 391 1709 391 
Q 2188 391 2477 730 
Q 2766 1069 2766 1631 
L 2766 1759 
L 2194 1759 
z
M 3341 1997 
L 3341 0 
L 2766 0 
L 2766 531 
Q 2569 213 2275 61 
Q 1981 -91 1556 -91 
Q 1019 -91 701 211 
Q 384 513 384 1019 
Q 384 1609 779 1909 
Q 1175 2209 1959 2209 
L 2766 2209 
L 2766 2266 
Q 2766 2663 2505 2880 
Q 2244 3097 1772 3097 
Q 1472 3097 1187 3025 
Q 903 2953 641 2809 
L 641 3341 
Q 956 3463 1253 3523 
Q 1550 3584 1831 3584 
Q 2591 3584 2966 3190 
Q 3341 2797 3341 1997 
z
" transform="scale(0.015625)"/>
       <path id="DejaVuSans-67" d="M 2906 1791 
Q 2906 2416 2648 2759 
Q 2391 3103 1925 3103 
Q 1463 3103 1205 2759 
Q 947 2416 947 1791 
Q 947 1169 1205 825 
Q 1463 481 1925 481 
Q 2391 481 2648 825 
Q 2906 1169 2906 1791 
z
M 3481 434 
Q 3481 -459 3084 -895 
Q 2688 -1331 1869 -1331 
Q 1566 -1331 1297 -1286 
Q 1028 -1241 775 -1147 
L 775 -588 
Q 1028 -725 1275 -790 
Q 1522 -856 1778 -856 
Q 2344 -856 2625 -561 
Q 2906 -266 2906 331 
L 2906 616 
Q 2728 306 2450 153 
Q 2172 0 1784 0 
Q 1141 0 747 490 
Q 353 981 353 1791 
Q 353 2603 747 3093 
Q 1141 3584 1784 3584 
Q 2172 3584 2450 3431 
Q 2728 3278 2906 2969 
L 2906 3500 
L 3481 3500 
L 3481 434 
z
" transform="scale(0.015625)"/>
       <path id="DejaVuSans-73" d="M 2834 3397 
L 2834 2853 
Q 2591 2978 2328 3040 
Q 2066 3103 1784 3103 
Q 1356 3103 1142 2972 
Q 928 2841 928 2578 
Q 928 2378 1081 2264 
Q 1234 2150 1697 2047 
L 1894 2003 
Q 2506 1872 2764 1633 
Q 3022 1394 3022 966 
Q 3022 478 2636 193 
Q 2250 -91 1575 -91 
Q 1294 -91 989 -36 
Q 684 19 347 128 
L 347 722 
Q 666 556 975 473 
Q 1284 391 1588 391 
Q 1994 391 2212 530 
Q 2431 669 2431 922 
Q 2431 1156 2273 1281 
Q 2116 1406 1581 1522 
L 1381 1569 
Q 847 1681 609 1914 
Q 372 2147 372 2553 
Q 372 3047 722 3315 
Q 1072 3584 1716 3584 
Q 2034 3584 2315 3537 
Q 2597 3491 2834 3397 
z
" transform="scale(0.015625)"/>
       <path id="DejaVuSans-72" d="M 2631 2963 
Q 2534 3019 2420 3045 
Q 2306 3072 2169 3072 
Q 1681 3072 1420 2755 
Q 1159 2438 1159 1844 
L 1159 0 
L 581 0 
L 581 3500 
L 1159 3500 
L 1159 2956 
Q 1341 3275 1631 3429 
Q 1922 3584 2338 3584 
Q 2397 3584 2469 3576 
Q 2541 3569 2628 3553 
L 2631 2963 
z
" transform="scale(0.015625)"/>
       <path id="DejaVuSans-35" d="M 691 4666 
L 3169 4666 
L 3169 4134 
L 1269 4134 
L 1269 2991 
Q 1406 3038 1543 3061 
Q 1681 3084 1819 3084 
Q 2600 3084 3056 2656 
Q 3513 2228 3513 1497 
Q 3513 744 3044 326 
Q 2575 -91 1722 -91 
Q 1428 -91 1123 -41 
Q 819 9 494 109 
L 494 744 
Q 775 591 1075 516 
Q 1375 441 1709 441 
Q 2250 441 2565 725 
Q 2881 1009 2881 1497 
Q 2881 1984 2565 2268 
Q 2250 2553 1709 2553 
Q 1456 2553 1204 2497 
Q 953 2441 691 2322 
L 691 4666 
z
" transform="scale(0.015625)"/>
       <path id="DejaVuSans-39" d="M 703 97 
L 703 672 
Q 941 559 1184 500 
Q 1428 441 1663 441 
Q 2288 441 2617 861 
Q 2947 1281 2994 2138 
Q 2813 1869 2534 1725 
Q 2256 1581 1919 1581 
Q 1219 1581 811 2004 
Q 403 2428 403 3163 
Q 403 3881 828 4315 
Q 1253 4750 1959 4750 
Q 2769 4750 3195 4129 
Q 3622 3509 3622 2328 
Q 3622 1225 3098 567 
Q 2575 -91 1691 -91 
Q 1453 -91 1209 -44 
Q 966 3 703 97 
z
M 1959 2075 
Q 2384 2075 2632 2365 
Q 2881 2656 2881 3163 
Q 2881 3666 2632 3958 
Q 2384 4250 1959 4250 
Q 1534 4250 1286 3958 
Q 1038 3666 1038 3163 
Q 1038 2656 1286 2365 
Q 1534 2075 1959 2075 
z
" transform="scale(0.015625)"/>
       <path id="DejaVuSans-62" d="M 3116 1747 
Q 3116 2381 2855 2742 
Q 2594 3103 2138 3103 
Q 1681 3103 1420 2742 
Q 1159 2381 1159 1747 
Q 1159 1113 1420 752 
Q 1681 391 2138 391 
Q 2594 391 2855 752 
Q 3116 1113 3116 1747 
z
M 1159 2969 
Q 1341 3281 1617 3432 
Q 1894 3584 2278 3584 
Q 2916 3584 3314 3078 
Q 3713 2572 3713 1747 
Q 3713 922 3314 415 
Q 2916 -91 2278 -91 
Q 1894 -91 1617 61 
Q 1341 213 1159 525 
L 1159 0 
L 581 0 
L 581 4863 
L 1159 4863 
L 1159 2969 
z
" transform="scale(0.015625)"/>
      </defs>
      <use xlink:href="#DejaVuSans-4d"/>
      <use xlink:href="#DejaVuSans-61" x="86.279297"/>
      <use xlink:href="#DejaVuSans-67" x="147.558594"/>
      <use xlink:href="#DejaVuSans-69" x="211.035156"/>
      <use xlink:href="#DejaVuSans-73" x="238.818359"/>
      <use xlink:href="#DejaVuSans-74" x="290.917969"/>
      <use xlink:href="#DejaVuSans-72" x="330.126953"/>
      <use xlink:href="#DejaVuSans-61" x="371.240234"/>
      <use xlink:href="#DejaVuSans-6c" x="432.519531"/>
      <use xlink:href="#DejaVuSans-20" x="460.302734"/>
      <use xlink:href="#DejaVuSans-53" x="492.089844"/>
      <use xlink:href="#DejaVuSans-6d" x="555.566406"/>
      <use xlink:href="#DejaVuSans-61" x="652.978516"/>
      <use xlink:href="#DejaVuSans-6c" x="714.257812"/>
      <use xlink:href="#DejaVuSans-6c" x="742.041016"/>
      <use xlink:href="#DejaVuSans-20" x="769.824219"/>
      <use xlink:href="#DejaVuSans-32" x="801.611328"/>
      <use xlink:href="#DejaVuSans-35" x="865.234375"/>
      <use xlink:href="#DejaVuSans-30" x="928.857422"/>
      <use xlink:href="#DejaVuSans-39" x="992.480469"/>
      <use xlink:href="#DejaVuSans-20" x="1056.103516"/>
      <use xlink:href="#DejaVuSans-34" x="1087.890625"/>
      <use xlink:href="#DejaVuSans-62" x="1151.513672"/>
      <use xlink:href="#DejaVuSans-69" x="1214.990234"/>
      <use xlink:href="#DejaVuSans-74" x="1242.773438"/>
     </g>
    </g>
    <g id="line2d_32">
     <path d="M 685.106875 121.894688 
L 695.106875 121.894688 
L 705.106875 121.894688 
" style="fill: none; stroke: #a0e7e5; stroke-width: 2; stroke-linecap: square"/>
     <g>
      <use xlink:href="#ma68f00b805" x="695.106875" y="121.894688" style="fill: #a0e7e5; stroke: #a0e7e5"/>
     </g>
    </g>
    <g id="text_11">
     <!-- Qwen 3 4B 2507 4bit -->
     <g transform="translate(713.106875 125.394688) scale(0.1 -0.1)">
      <defs>
       <path id="DejaVuSans-51" d="M 2522 4238 
Q 1834 4238 1429 3725 
Q 1025 3213 1025 2328 
Q 1025 1447 1429 934 
Q 1834 422 2522 422 
Q 3209 422 3611 934 
Q 4013 1447 4013 2328 
Q 4013 3213 3611 3725 
Q 3209 4238 2522 4238 
z
M 3406 84 
L 4238 -825 
L 3475 -825 
L 2784 -78 
Q 2681 -84 2626 -87 
Q 2572 -91 2522 -91 
Q 1538 -91 948 567 
Q 359 1225 359 2328 
Q 359 3434 948 4092 
Q 1538 4750 2522 4750 
Q 3503 4750 4090 4092 
Q 4678 3434 4678 2328 
Q 4678 1516 4351 937 
Q 4025 359 3406 84 
z
" transform="scale(0.015625)"/>
       <path id="DejaVuSans-77" d="M 269 3500 
L 844 3500 
L 1563 769 
L 2278 3500 
L 2956 3500 
L 3675 769 
L 4391 3500 
L 4966 3500 
L 4050 0 
L 3372 0 
L 2619 2869 
L 1863 0 
L 1184 0 
L 269 3500 
z
" transform="scale(0.015625)"/>
       <path id="DejaVuSans-33" d="M 2597 2516 
Q 3050 2419 3304 2112 
Q 3559 1806 3559 1356 
Q 3559 666 3084 287 
Q 2609 -91 1734 -91 
Q 1441 -91 1130 -33 
Q 819 25 488 141 
L 488 750 
Q 750 597 1062 519 
Q 1375 441 1716 441 
Q 2309 441 2620 675 
Q 2931 909 2931 1356 
Q 2931 1769 2642 2001 
Q 2353 2234 1838 2234 
L 1294 2234 
L 1294 2753 
L 1863 2753 
Q 2328 2753 2575 2939 
Q 2822 3125 2822 3475 
Q 2822 3834 2567 4026 
Q 2313 4219 1838 4219 
Q 1578 4219 1281 4162 
Q 984 4106 628 3988 
L 628 4550 
Q 988 4650 1302 4700 
Q 1616 4750 1894 4750 
Q 2613 4750 3031 4423 
Q 3450 4097 3450 3541 
Q 3450 3153 3228 2886 
Q 3006 2619 2597 2516 
z
" transform="scale(0.015625)"/>
       <path id="DejaVuSans-37" d="M 525 4666 
L 3525 4666 
L 3525 4397 
L 1831 0 
L 1172 0 
L 2766 4134 
L 525 4134 
L 525 4666 
z
" transform="scale(0.015625)"/>
      </defs>
      <use xlink:href="#DejaVuSans-51"/>
      <use xlink:href="#DejaVuSans-77" x="78.710938"/>
      <use xlink:href="#DejaVuSans-65" x="160.498047"/>
      <use xlink:href="#DejaVuSans-6e" x="222.021484"/>
      <use xlink:href="#DejaVuSans-20" x="285.400391"/>
      <use xlink:href="#DejaVuSans-33" x="317.1875"/>
      <use xlink:href="#DejaVuSans-20" x="380.810547"/>
      <use xlink:href="#DejaVuSans-34" x="412.597656"/>
      <use xlink:href="#DejaVuSans-42" x="476.220703"/>
      <use xlink:href="#DejaVuSans-20" x="544.824219"/>
      <use xlink:href="#DejaVuSans-32" x="576.611328"/>
      <use xlink:href="#DejaVuSans-35" x="640.234375"/>
      <use xlink:href="#DejaVuSans-30" x="703.857422"/>
      <use xlink:href="#DejaVuSans-37" x="767.480469"/>
      <use xlink:href="#DejaVuSans-20" x="831.103516"/>
      <use xlink:href="#DejaVuSans-34" x="862.890625"/>
      <use xlink:href="#DejaVuSans-62" x="926.513672"/>
      <use xlink:href="#DejaVuSans-69" x="989.990234"/>
      <use xlink:href="#DejaVuSans-74" x="1017.773438"/>
     </g>
    </g>
    <g id="line2d_33">
     <path d="M 685.106875 136.572813 
L 695.106875 136.572813 
L 705.106875 136.572813 
" style="fill: none; stroke: #f28e8e; stroke-width: 2; stroke-linecap: square"/>
     <g>
      <use xlink:href="#mf7f330645d" x="695.106875" y="136.572813" style="fill: #f28e8e; stroke: #f28e8e"/>
     </g>
    </g>
    <g id="text_12">
     <!-- Qwen 3 Next 80B 4bit -->
     <g transform="translate(713.106875 140.072813) scale(0.1 -0.1)">
      <defs>
       <path id="DejaVuSans-4e" d="M 628 4666 
L 1478 4666 
L 3547 763 
L 3547 4666 
L 4159 4666 
L 4159 0 
L 3309 0 
L 1241 3903 
L 1241 0 
L 628 0 
L 628 4666 
z
" transform="scale(0.015625)"/>
       <path id="DejaVuSans-78" d="M 3513 3500 
L 2247 1797 
L 3578 0 
L 2900 0 
L 1881 1375 
L 863 0 
L 184 0 
L 1544 1831 
L 300 3500 
L 978 3500 
L 1906 2253 
L 2834 3500 
L 3513 3500 
z
" transform="scale(0.015625)"/>
      </defs>
      <use xlink:href="#DejaVuSans-51"/>
      <use xlink:href="#DejaVuSans-77" x="78.710938"/>
      <use xlink:href="#DejaVuSans-65" x="160.498047"/>
      <use xlink:href="#DejaVuSans-6e" x="222.021484"/>
      <use xlink:href="#DejaVuSans-20" x="285.400391"/>
      <use xlink:href="#DejaVuSans-33" x="317.1875"/>
      <use xlink:href="#DejaVuSans-20" x="380.810547"/>
      <use xlink:href="#DejaVuSans-4e" x="412.597656"/>
      <use xlink:href="#DejaVuSans-65" x="487.402344"/>
      <use xlink:href="#DejaVuSans-78" x="547.175781"/>
      <use xlink:href="#DejaVuSans-74" x="606.355469"/>
      <use xlink:href="#DejaVuSans-20" x="645.564453"/>
      <use xlink:href="#DejaVuSans-38" x="677.351562"/>
      <use xlink:href="#DejaVuSans-30" x="740.974609"/>
      <use xlink:href="#DejaVuSans-42" x="804.597656"/>
      <use xlink:href="#DejaVuSans-20" x="873.201172"/>
      <use xlink:href="#DejaVuSans-34" x="904.988281"/>
      <use xlink:href="#DejaVuSans-62" x="968.611328"/>
      <use xlink:href="#DejaVuSans-69" x="1032.087891"/>
      <use xlink:href="#DejaVuSans-74" x="1059.871094"/>
     </g>
    </g>
    <g id="line2d_34">
     <path d="M 685.106875 151.250938 
L 695.106875 151.250938 
L 705.106875 151.250938 
" style="fill: none; stroke: #f6c78f; stroke-width: 2; stroke-linecap: square"/>
     <g>
      <use xlink:href="#mf19c5d5004" x="695.106875" y="151.250938" style="fill: #f6c78f; stroke: #f6c78f"/>
     </g>
    </g>
    <g id="text_13">
     <!-- GPT-OSS 20B MXFP4 -->
     <g transform="translate(713.106875 154.750938) scale(0.1 -0.1)">
      <use xlink:href="#DejaVuSans-47"/>
      <use xlink:href="#DejaVuSans-50" x="77.490234"/>
      <use xlink:href="#DejaVuSans-54" x="137.792969"/>
      <use xlink:href="#DejaVuSans-2d" x="189.751953"/>
      <use xlink:href="#DejaVuSans-4f" x="228.585938"/>
      <use xlink:href="#DejaVuSans-53" x="307.296875"/>
      <use xlink:href="#DejaVuSans-53" x="370.773438"/>
      <use xlink:href="#DejaVuSans-20" x="434.25"/>
      <use xlink:href="#DejaVuSans-32" x="466.037109"/>
      <use xlink:href="#DejaVuSans-30" x="529.660156"/>
      <use xlink:href="#DejaVuSans-42" x="593.283203"/>
      <use xlink:href="#DejaVuSans-20" x="661.886719"/>
      <use xlink:href="#DejaVuSans-4d" x="693.673828"/>
      <use xlink:href="#DejaVuSans-58" x="779.953125"/>
      <use xlink:href="#DejaVuSans-46" x="848.458984"/>
      <use xlink:href="#DejaVuSans-50" x="905.978516"/>
      <use xlink:href="#DejaVuSans-34" x="966.28125"/>
     </g>
    </g>
   </g>
  </g>
  <g id="axes_2">
   <g id="patch_8">
    <path d="M 55.26375 811.24 
L 850.30375 811.24 
L 850.30375 462.2 
L 55.26375 462.2 
z
" style="fill: #ffffff"/>
   </g>
   <g id="matplotlib.axis_3">
    <g id="xtick_7">
     <g id="line2d_35">
      <path d="M 55.26375 811.24 
L 55.26375 462.2 
" clip-path="url(#p1a5c37fcc7)" style="fill: none; stroke: #b0b0b0; stroke-opacity: 0.3; stroke-width: 0.8; stroke-linecap: square"/>
     </g>
     <g id="line2d_36">
      <g>
       <use xlink:href="#mac80ec0676" x="55.26375" y="811.24" style="stroke: #000000; stroke-width: 0.8"/>
      </g>
     </g>
     <g id="text_14">
      <!-- 0 -->
      <g transform="translate(52.0825 825.838437) scale(0.1 -0.1)">
       <use xlink:href="#DejaVuSans-30"/>
      </g>
     </g>
    </g>
    <g id="xtick_8">
     <g id="line2d_37">
      <path d="M 206.69994 811.24 
L 206.69994 462.2 
" clip-path="url(#p1a5c37fcc7)" style="fill: none; stroke: #b0b0b0; stroke-opacity: 0.3; stroke-width: 0.8; stroke-linecap: square"/>
     </g>
     <g id="line2d_38">
      <g>
       <use xlink:href="#mac80ec0676" x="206.69994" y="811.24" style="stroke: #000000; stroke-width: 0.8"/>
      </g>
     </g>
     <g id="text_15">
      <!-- 16,000 -->
      <g transform="translate(189.204628 825.838437) scale(0.1 -0.1)">
       <defs>
        <path id="DejaVuSans-2c" d="M 750 794 
L 1409 794 
L 1409 256 
L 897 -744 
L 494 -744 
L 750 256 
L 750 794 
z
" transform="scale(0.015625)"/>
       </defs>
       <use xlink:href="#DejaVuSans-31"/>
       <use xlink:href="#DejaVuSans-36" x="63.623047"/>
       <use xlink:href="#DejaVuSans-2c" x="127.246094"/>
       <use xlink:href="#DejaVuSans-30" x="159.033203"/>
       <use xlink:href="#DejaVuSans-30" x="222.65625"/>
       <use xlink:href="#DejaVuSans-30" x="286.279297"/>
      </g>
     </g>
    </g>
    <g id="xtick_9">
     <g id="line2d_39">
      <path d="M 358.136131 811.24 
L 358.136131 462.2 
" clip-path="url(#p1a5c37fcc7)" style="fill: none; stroke: #b0b0b0; stroke-opacity: 0.3; stroke-width: 0.8; stroke-linecap: square"/>
     </g>
     <g id="line2d_40">
      <g>
       <use xlink:href="#mac80ec0676" x="358.136131" y="811.24" style="stroke: #000000; stroke-width: 0.8"/>
      </g>
     </g>
     <g id="text_16">
      <!-- 32,000 -->
      <g transform="translate(340.640818 825.838437) scale(0.1 -0.1)">
       <use xlink:href="#DejaVuSans-33"/>
       <use xlink:href="#DejaVuSans-32" x="63.623047"/>
       <use xlink:href="#DejaVuSans-2c" x="127.246094"/>
       <use xlink:href="#DejaVuSans-30" x="159.033203"/>
       <use xlink:href="#DejaVuSans-30" x="222.65625"/>
       <use xlink:href="#DejaVuSans-30" x="286.279297"/>
      </g>
     </g>
    </g>
    <g id="xtick_10">
     <g id="line2d_41">
      <path d="M 509.572321 811.24 
L 509.572321 462.2 
" clip-path="url(#p1a5c37fcc7)" style="fill: none; stroke: #b0b0b0; stroke-opacity: 0.3; stroke-width: 0.8; stroke-linecap: square"/>
     </g>
     <g id="line2d_42">
      <g>
       <use xlink:href="#mac80ec0676" x="509.572321" y="811.24" style="stroke: #000000; stroke-width: 0.8"/>
      </g>
     </g>
     <g id="text_17">
      <!-- 48,000 -->
      <g transform="translate(492.077009 825.838437) scale(0.1 -0.1)">
       <use xlink:href="#DejaVuSans-34"/>
       <use xlink:href="#DejaVuSans-38" x="63.623047"/>
       <use xlink:href="#DejaVuSans-2c" x="127.246094"/>
       <use xlink:href="#DejaVuSans-30" x="159.033203"/>
       <use xlink:href="#DejaVuSans-30" x="222.65625"/>
       <use xlink:href="#DejaVuSans-30" x="286.279297"/>
      </g>
     </g>
    </g>
    <g id="xtick_11">
     <g id="line2d_43">
      <path d="M 661.008512 811.24 
L 661.008512 462.2 
" clip-path="url(#p1a5c37fcc7)" style="fill: none; stroke: #b0b0b0; stroke-opacity: 0.3; stroke-width: 0.8; stroke-linecap: square"/>
     </g>
     <g id="line2d_44">
      <g>
       <use xlink:href="#mac80ec0676" x="661.008512" y="811.24" style="stroke: #000000; stroke-width: 0.8"/>
      </g>
     </g>
     <g id="text_18">
      <!-- 64,000 -->
      <g transform="translate(643.513199 825.838437) scale(0.1 -0.1)">
       <use xlink:href="#DejaVuSans-36"/>
       <use xlink:href="#DejaVuSans-34" x="63.623047"/>
       <use xlink:href="#DejaVuSans-2c" x="127.246094"/>
       <use xlink:href="#DejaVuSans-30" x="159.033203"/>
       <use xlink:href="#DejaVuSans-30" x="222.65625"/>
       <use xlink:href="#DejaVuSans-30" x="286.279297"/>
      </g>
     </g>
    </g>
    <g id="xtick_12">
     <g id="line2d_45">
      <path d="M 812.444702 811.24 
L 812.444702 462.2 
" clip-path="url(#p1a5c37fcc7)" style="fill: none; stroke: #b0b0b0; stroke-opacity: 0.3; stroke-width: 0.8; stroke-linecap: square"/>
     </g>
     <g id="line2d_46">
      <g>
       <use xlink:href="#mac80ec0676" x="812.444702" y="811.24" style="stroke: #000000; stroke-width: 0.8"/>
      </g>
     </g>
     <g id="text_19">
      <!-- 80,000 -->
      <g transform="translate(794.94939 825.838437) scale(0.1 -0.1)">
       <use xlink:href="#DejaVuSans-38"/>
       <use xlink:href="#DejaVuSans-30" x="63.623047"/>
       <use xlink:href="#DejaVuSans-2c" x="127.246094"/>
       <use xlink:href="#DejaVuSans-30" x="159.033203"/>
       <use xlink:href="#DejaVuSans-30" x="222.65625"/>
       <use xlink:href="#DejaVuSans-30" x="286.279297"/>
      </g>
     </g>
    </g>
    <g id="text_20">
     <!-- Context Size (tokens) -->
     <g transform="translate(388.565 841.03625) scale(0.12 -0.12)">
      <defs>
       <path id="DejaVuSans-7a" d="M 353 3500 
L 3084 3500 
L 3084 2975 
L 922 459 
L 3084 459 
L 3084 0 
L 275 0 
L 275 525 
L 2438 3041 
L 353 3041 
L 353 3500 
z
" transform="scale(0.015625)"/>
       <path id="DejaVuSans-28" d="M 1984 4856 
Q 1566 4138 1362 3434 
Q 1159 2731 1159 2009 
Q 1159 1288 1364 580 
Q 1569 -128 1984 -844 
L 1484 -844 
Q 1016 -109 783 600 
Q 550 1309 550 2009 
Q 550 2706 781 3412 
Q 1013 4119 1484 4856 
L 1984 4856 
z
" transform="scale(0.015625)"/>
       <path id="DejaVuSans-6b" d="M 581 4863 
L 1159 4863 
L 1159 1991 
L 2875 3500 
L 3609 3500 
L 1753 1863 
L 3688 0 
L 2938 0 
L 1159 1709 
L 1159 0 
L 581 0 
L 581 4863 
z
" transform="scale(0.015625)"/>
       <path id="DejaVuSans-29" d="M 513 4856 
L 1013 4856 
Q 1481 4119 1714 3412 
Q 1947 2706 1947 2009 
Q 1947 1309 1714 600 
Q 1481 -109 1013 -844 
L 513 -844 
Q 928 -128 1133 580 
Q 1338 1288 1338 2009 
Q 1338 2731 1133 3434 
Q 928 4138 513 4856 
z
" transform="scale(0.015625)"/>
      </defs>
      <use xlink:href="#DejaVuSans-43"/>
      <use xlink:href="#DejaVuSans-6f" x="69.824219"/>
      <use xlink:href="#DejaVuSans-6e" x="131.005859"/>
      <use xlink:href="#DejaVuSans-74" x="194.384766"/>
      <use xlink:href="#DejaVuSans-65" x="233.59375"/>
      <use xlink:href="#DejaVuSans-78" x="293.367188"/>
      <use xlink:href="#DejaVuSans-74" x="352.546875"/>
      <use xlink:href="#DejaVuSans-20" x="391.755859"/>
      <use xlink:href="#DejaVuSans-53" x="423.542969"/>
      <use xlink:href="#DejaVuSans-69" x="487.019531"/>
      <use xlink:href="#DejaVuSans-7a" x="514.802734"/>
      <use xlink:href="#DejaVuSans-65" x="567.292969"/>
      <use xlink:href="#DejaVuSans-20" x="628.816406"/>
      <use xlink:href="#DejaVuSans-28" x="660.603516"/>
      <use xlink:href="#DejaVuSans-74" x="699.617188"/>
      <use xlink:href="#DejaVuSans-6f" x="738.826172"/>
      <use xlink:href="#DejaVuSans-6b" x="800.007812"/>
      <use xlink:href="#DejaVuSans-65" x="854.292969"/>
      <use xlink:href="#DejaVuSans-6e" x="915.816406"/>
      <use xlink:href="#DejaVuSans-73" x="979.195312"/>
      <use xlink:href="#DejaVuSans-29" x="1031.294922"/>
     </g>
    </g>
   </g>
   <g id="matplotlib.axis_4">
    <g id="ytick_7">
     <g id="line2d_47">
      <path d="M 55.26375 811.24 
L 850.30375 811.24 
" clip-path="url(#p1a5c37fcc7)" style="fill: none; stroke: #b0b0b0; stroke-opacity: 0.3; stroke-width: 0.8; stroke-linecap: square"/>
     </g>
     <g id="line2d_48">
      <g>
       <use xlink:href="#mc8ebc627f6" x="55.26375" y="811.24" style="stroke: #000000; stroke-width: 0.8"/>
      </g>
     </g>
     <g id="text_21">
      <!-- 0 -->
      <g transform="translate(41.90125 815.039219) scale(0.1 -0.1)">
       <use xlink:href="#DejaVuSans-30"/>
      </g>
     </g>
    </g>
    <g id="ytick_8">
     <g id="line2d_49">
      <path d="M 55.26375 742.165453 
L 850.30375 742.165453 
" clip-path="url(#p1a5c37fcc7)" style="fill: none; stroke: #b0b0b0; stroke-opacity: 0.3; stroke-width: 0.8; stroke-linecap: square"/>
     </g>
     <g id="line2d_50">
      <g>
       <use xlink:href="#mc8ebc627f6" x="55.26375" y="742.165453" style="stroke: #000000; stroke-width: 0.8"/>
      </g>
     </g>
     <g id="text_22">
      <!-- 200 -->
      <g transform="translate(29.17625 745.964672) scale(0.1 -0.1)">
       <use xlink:href="#DejaVuSans-32"/>
       <use xlink:href="#DejaVuSans-30" x="63.623047"/>
       <use xlink:href="#DejaVuSans-30" x="127.246094"/>
      </g>
     </g>
    </g>
    <g id="ytick_9">
     <g id="line2d_51">
      <path d="M 55.26375 673.090907 
L 850.30375 673.090907 
" clip-path="url(#p1a5c37fcc7)" style="fill: none; stroke: #b0b0b0; stroke-opacity: 0.3; stroke-width: 0.8; stroke-linecap: square"/>
     </g>
     <g id="line2d_52">
      <g>
       <use xlink:href="#mc8ebc627f6" x="55.26375" y="673.090907" style="stroke: #000000; stroke-width: 0.8"/>
      </g>
     </g>
     <g id="text_23">
      <!-- 400 -->
      <g transform="translate(29.17625 676.890125) scale(0.1 -0.1)">
       <use xlink:href="#DejaVuSans-34"/>
       <use xlink:href="#DejaVuSans-30" x="63.623047"/>
       <use xlink:href="#DejaVuSans-30" x="127.246094"/>
      </g>
     </g>
    </g>
    <g id="ytick_10">
     <g id="line2d_53">
      <path d="M 55.26375 604.01636 
L 850.30375 604.01636 
" clip-path="url(#p1a5c37fcc7)" style="fill: none; stroke: #b0b0b0; stroke-opacity: 0.3; stroke-width: 0.8; stroke-linecap: square"/>
     </g>
     <g id="line2d_54">
      <g>
       <use xlink:href="#mc8ebc627f6" x="55.26375" y="604.01636" style="stroke: #000000; stroke-width: 0.8"/>
      </g>
     </g>
     <g id="text_24">
      <!-- 600 -->
      <g transform="translate(29.17625 607.815579) scale(0.1 -0.1)">
       <use xlink:href="#DejaVuSans-36"/>
       <use xlink:href="#DejaVuSans-30" x="63.623047"/>
       <use xlink:href="#DejaVuSans-30" x="127.246094"/>
      </g>
     </g>
    </g>
    <g id="ytick_11">
     <g id="line2d_55">
      <path d="M 55.26375 534.941813 
L 850.30375 534.941813 
" clip-path="url(#p1a5c37fcc7)" style="fill: none; stroke: #b0b0b0; stroke-opacity: 0.3; stroke-width: 0.8; stroke-linecap: square"/>
     </g>
     <g id="line2d_56">
      <g>
       <use xlink:href="#mc8ebc627f6" x="55.26375" y="534.941813" style="stroke: #000000; stroke-width: 0.8"/>
      </g>
     </g>
     <g id="text_25">
      <!-- 800 -->
      <g transform="translate(29.17625 538.741032) scale(0.1 -0.1)">
       <use xlink:href="#DejaVuSans-38"/>
       <use xlink:href="#DejaVuSans-30" x="63.623047"/>
       <use xlink:href="#DejaVuSans-30" x="127.246094"/>
      </g>
     </g>
    </g>
    <g id="ytick_12">
     <g id="line2d_57">
      <path d="M 55.26375 465.867267 
L 850.30375 465.867267 
" clip-path="url(#p1a5c37fcc7)" style="fill: none; stroke: #b0b0b0; stroke-opacity: 0.3; stroke-width: 0.8; stroke-linecap: square"/>
     </g>
     <g id="line2d_58">
      <g>
       <use xlink:href="#mc8ebc627f6" x="55.26375" y="465.867267" style="stroke: #000000; stroke-width: 0.8"/>
      </g>
     </g>
     <g id="text_26">
      <!-- 1000 -->
      <g transform="translate(22.81375 469.666485) scale(0.1 -0.1)">
       <use xlink:href="#DejaVuSans-31"/>
       <use xlink:href="#DejaVuSans-30" x="63.623047"/>
       <use xlink:href="#DejaVuSans-30" x="127.246094"/>
       <use xlink:href="#DejaVuSans-30" x="190.869141"/>
      </g>
     </g>
    </g>
    <g id="text_27">
     <!-- Prompt TPS -->
     <g transform="translate(16.318125 671.239687) rotate(-90) scale(0.12 -0.12)">
      <use xlink:href="#DejaVuSans-50"/>
      <use xlink:href="#DejaVuSans-72" x="58.552734"/>
      <use xlink:href="#DejaVuSans-6f" x="97.416016"/>
      <use xlink:href="#DejaVuSans-6d" x="158.597656"/>
      <use xlink:href="#DejaVuSans-70" x="256.009766"/>
      <use xlink:href="#DejaVuSans-74" x="319.486328"/>
      <use xlink:href="#DejaVuSans-20" x="358.695312"/>
      <use xlink:href="#DejaVuSans-54" x="390.482422"/>
      <use xlink:href="#DejaVuSans-50" x="451.566406"/>
      <use xlink:href="#DejaVuSans-53" x="511.869141"/>
     </g>
    </g>
   </g>
   <g id="line2d_59">
    <path d="M 64.728512 644.720437 
L 149.911369 675.883974 
L 244.558988 690.719867 
L 433.854226 722.502433 
L 623.149464 733.413992 
L 717.797083 760.294576 
L 812.444702 756.54988 
" clip-path="url(#p1a5c37fcc7)" style="fill: none; stroke: #8fd694; stroke-width: 2; stroke-linecap: square"/>
    <g clip-path="url(#p1a5c37fcc7)">
     <use xlink:href="#m18d7d28df7" x="64.728512" y="644.720437" style="fill: #8fd694; stroke: #8fd694"/>
     <use xlink:href="#m18d7d28df7" x="149.911369" y="675.883974" style="fill: #8fd694; stroke: #8fd694"/>
     <use xlink:href="#m18d7d28df7" x="244.558988" y="690.719867" style="fill: #8fd694; stroke: #8fd694"/>
     <use xlink:href="#m18d7d28df7" x="433.854226" y="722.502433" style="fill: #8fd694; stroke: #8fd694"/>
     <use xlink:href="#m18d7d28df7" x="623.149464" y="733.413992" style="fill: #8fd694; stroke: #8fd694"/>
     <use xlink:href="#m18d7d28df7" x="717.797083" y="760.294576" style="fill: #8fd694; stroke: #8fd694"/>
     <use xlink:href="#m18d7d28df7" x="812.444702" y="756.54988" style="fill: #8fd694; stroke: #8fd694"/>
    </g>
   </g>
   <g id="line2d_60">
    <path d="M 64.728512 749.534702 
L 149.911369 752.082144 
L 244.558988 759.763539 
L 433.854226 762.151746 
L 623.149464 771.709217 
L 717.797083 768.464159 
L 812.444702 776.026153 
" clip-path="url(#p1a5c37fcc7)" style="fill: none; stroke: #a39cf4; stroke-width: 2; stroke-linecap: square"/>
    <g clip-path="url(#p1a5c37fcc7)">
     <use xlink:href="#m7d6267a7b5" x="64.728512" y="749.534702" style="fill: #a39cf4; stroke: #a39cf4"/>
     <use xlink:href="#m7d6267a7b5" x="149.911369" y="752.082144" style="fill: #a39cf4; stroke: #a39cf4"/>
     <use xlink:href="#m7d6267a7b5" x="244.558988" y="759.763539" style="fill: #a39cf4; stroke: #a39cf4"/>
     <use xlink:href="#m7d6267a7b5" x="433.854226" y="762.151746" style="fill: #a39cf4; stroke: #a39cf4"/>
     <use xlink:href="#m7d6267a7b5" x="623.149464" y="771.709217" style="fill: #a39cf4; stroke: #a39cf4"/>
     <use xlink:href="#m7d6267a7b5" x="717.797083" y="768.464159" style="fill: #a39cf4; stroke: #a39cf4"/>
     <use xlink:href="#m7d6267a7b5" x="812.444702" y="776.026153" style="fill: #a39cf4; stroke: #a39cf4"/>
    </g>
   </g>
   <g id="line2d_61">
    <path d="M 64.728512 493.930909 
L 149.911369 555.83648 
L 244.558988 597.153642 
L 433.854226 667.171375 
L 623.149464 704.02208 
L 717.797083 715.119398 
L 812.444702 723.745528 
" clip-path="url(#p1a5c37fcc7)" style="fill: none; stroke: #a0e7e5; stroke-width: 2; stroke-linecap: square"/>
    <g clip-path="url(#p1a5c37fcc7)">
     <use xlink:href="#ma68f00b805" x="64.728512" y="493.930909" style="fill: #a0e7e5; stroke: #a0e7e5"/>
     <use xlink:href="#ma68f00b805" x="149.911369" y="555.83648" style="fill: #a0e7e5; stroke: #a0e7e5"/>
     <use xlink:href="#ma68f00b805" x="244.558988" y="597.153642" style="fill: #a0e7e5; stroke: #a0e7e5"/>
     <use xlink:href="#ma68f00b805" x="433.854226" y="667.171375" style="fill: #a0e7e5; stroke: #a0e7e5"/>
     <use xlink:href="#ma68f00b805" x="623.149464" y="704.02208" style="fill: #a0e7e5; stroke: #a0e7e5"/>
     <use xlink:href="#ma68f00b805" x="717.797083" y="715.119398" style="fill: #a0e7e5; stroke: #a0e7e5"/>
     <use xlink:href="#ma68f00b805" x="812.444702" y="723.745528" style="fill: #a0e7e5; stroke: #a0e7e5"/>
    </g>
   </g>
   <g id="line2d_62">
    <path d="M 64.728512 579.418439 
L 149.911369 535.792168 
L 244.558988 553.658244 
L 339.206607 541.063977 
L 433.854226 568.247262 
L 623.149464 600.507836 
L 717.797083 618.557459 
L 812.444702 653.625412 
" clip-path="url(#p1a5c37fcc7)" style="fill: none; stroke: #f28e8e; stroke-width: 2; stroke-linecap: square"/>
    <g clip-path="url(#p1a5c37fcc7)">
     <use xlink:href="#mf7f330645d" x="64.728512" y="579.418439" style="fill: #f28e8e; stroke: #f28e8e"/>
     <use xlink:href="#mf7f330645d" x="149.911369" y="535.792168" style="fill: #f28e8e; stroke: #f28e8e"/>
     <use xlink:href="#mf7f330645d" x="244.558988" y="553.658244" style="fill: #f28e8e; stroke: #f28e8e"/>
     <use xlink:href="#mf7f330645d" x="339.206607" y="541.063977" style="fill: #f28e8e; stroke: #f28e8e"/>
     <use xlink:href="#mf7f330645d" x="433.854226" y="568.247262" style="fill: #f28e8e; stroke: #f28e8e"/>
     <use xlink:href="#mf7f330645d" x="623.149464" y="600.507836" style="fill: #f28e8e; stroke: #f28e8e"/>
     <use xlink:href="#mf7f330645d" x="717.797083" y="618.557459" style="fill: #f28e8e; stroke: #f28e8e"/>
     <use xlink:href="#mf7f330645d" x="812.444702" y="653.625412" style="fill: #f28e8e; stroke: #f28e8e"/>
    </g>
   </g>
   <g id="line2d_63">
    <path d="M 64.728512 544.052094 
L 149.911369 561.23606 
L 244.558988 600.862711 
L 433.854226 651.081111 
L 623.149464 678.032423 
L 717.797083 706.308057 
L 812.444702 733.600204 
" clip-path="url(#p1a5c37fcc7)" style="fill: none; stroke: #f6c78f; stroke-width: 2; stroke-linecap: square"/>
    <g clip-path="url(#p1a5c37fcc7)">
     <use xlink:href="#mf19c5d5004" x="64.728512" y="544.052094" style="fill: #f6c78f; stroke: #f6c78f"/>
     <use xlink:href="#mf19c5d5004" x="149.911369" y="561.23606" style="fill: #f6c78f; stroke: #f6c78f"/>
     <use xlink:href="#mf19c5d5004" x="244.558988" y="600.862711" style="fill: #f6c78f; stroke: #f6c78f"/>
     <use xlink:href="#mf19c5d5004" x="433.854226" y="651.081111" style="fill: #f6c78f; stroke: #f6c78f"/>
     <use xlink:href="#mf19c5d5004" x="623.149464" y="678.032423" style="fill: #f6c78f; stroke: #f6c78f"/>
     <use xlink:href="#mf19c5d5004" x="717.797083" y="706.308057" style="fill: #f6c78f; stroke: #f6c78f"/>
     <use xlink:href="#mf19c5d5004" x="812.444702" y="733.600204" style="fill: #f6c78f; stroke: #f6c78f"/>
    </g>
   </g>
   <g id="patch_9">
    <path d="M 55.26375 811.24 
L 55.26375 462.2 
" style="fill: none; stroke: #000000; stroke-width: 0.8; stroke-linejoin: miter; stroke-linecap: square"/>
   </g>
   <g id="patch_10">
    <path d="M 850.30375 811.24 
L 850.30375 462.2 
" style="fill: none; stroke: #000000; stroke-width: 0.8; stroke-linejoin: miter; stroke-linecap: square"/>
   </g>
   <g id="patch_11">
    <path d="M 55.26375 811.24 
L 850.30375 811.24 
" style="fill: none; stroke: #000000; stroke-width: 0.8; stroke-linejoin: miter; stroke-linecap: square"/>
   </g>
   <g id="patch_12">
    <path d="M 55.26375 462.2 
L 850.30375 462.2 
" style="fill: none; stroke: #000000; stroke-width: 0.8; stroke-linejoin: miter; stroke-linecap: square"/>
   </g>
   <g id="text_28">
    <!-- Prompt Processing Speed vs Context Size -->
    <g transform="translate(288.107656 456.2) scale(0.14 -0.14)">
     <defs>
      <path id="DejaVuSans-Bold-50" d="M 588 4666 
L 2584 4666 
Q 3475 4666 3951 4270 
Q 4428 3875 4428 3144 
Q 4428 2409 3951 2014 
Q 3475 1619 2584 1619 
L 1791 1619 
L 1791 0 
L 588 0 
L 588 4666 
z
M 1791 3794 
L 1791 2491 
L 2456 2491 
Q 2806 2491 2997 2661 
Q 3188 2831 3188 3144 
Q 3188 3456 2997 3625 
Q 2806 3794 2456 3794 
L 1791 3794 
z
" transform="scale(0.015625)"/>
      <path id="DejaVuSans-Bold-6d" d="M 3781 2919 
Q 3994 3244 4286 3414 
Q 4578 3584 4928 3584 
Q 5531 3584 5847 3212 
Q 6163 2841 6163 2131 
L 6163 0 
L 5038 0 
L 5038 1825 
Q 5041 1866 5042 1909 
Q 5044 1953 5044 2034 
Q 5044 2406 4934 2573 
Q 4825 2741 4581 2741 
Q 4263 2741 4089 2478 
Q 3916 2216 3909 1719 
L 3909 0 
L 2784 0 
L 2784 1825 
Q 2784 2406 2684 2573 
Q 2584 2741 2328 2741 
Q 2006 2741 1831 2477 
Q 1656 2213 1656 1722 
L 1656 0 
L 531 0 
L 531 3500 
L 1656 3500 
L 1656 2988 
Q 1863 3284 2130 3434 
Q 2397 3584 2719 3584 
Q 3081 3584 3359 3409 
Q 3638 3234 3781 2919 
z
" transform="scale(0.015625)"/>
      <path id="DejaVuSans-Bold-63" d="M 3366 3391 
L 3366 2478 
Q 3138 2634 2908 2709 
Q 2678 2784 2431 2784 
Q 1963 2784 1702 2511 
Q 1441 2238 1441 1747 
Q 1441 1256 1702 982 
Q 1963 709 2431 709 
Q 2694 709 2930 787 
Q 3166 866 3366 1019 
L 3366 103 
Q 3103 6 2833 -42 
Q 2563 -91 2291 -91 
Q 1344 -91 809 395 
Q 275 881 275 1747 
Q 275 2613 809 3098 
Q 1344 3584 2291 3584 
Q 2566 3584 2833 3536 
Q 3100 3488 3366 3391 
z
" transform="scale(0.015625)"/>
      <path id="DejaVuSans-Bold-67" d="M 2919 594 
Q 2688 288 2409 144 
Q 2131 0 1766 0 
Q 1125 0 706 504 
Q 288 1009 288 1791 
Q 288 2575 706 3076 
Q 1125 3578 1766 3578 
Q 2131 3578 2409 3434 
Q 2688 3291 2919 2981 
L 2919 3500 
L 4044 3500 
L 4044 353 
Q 4044 -491 3511 -936 
Q 2978 -1381 1966 -1381 
Q 1638 -1381 1331 -1331 
Q 1025 -1281 716 -1178 
L 716 -306 
Q 1009 -475 1290 -558 
Q 1572 -641 1856 -641 
Q 2406 -641 2662 -400 
Q 2919 -159 2919 353 
L 2919 594 
z
M 2181 2772 
Q 1834 2772 1640 2515 
Q 1447 2259 1447 1791 
Q 1447 1309 1634 1061 
Q 1822 813 2181 813 
Q 2531 813 2725 1069 
Q 2919 1325 2919 1791 
Q 2919 2259 2725 2515 
Q 2531 2772 2181 2772 
z
" transform="scale(0.015625)"/>
     </defs>
     <use xlink:href="#DejaVuSans-Bold-50"/>
     <use xlink:href="#DejaVuSans-Bold-72" x="73.291016"/>
     <use xlink:href="#DejaVuSans-Bold-6f" x="122.607422"/>
     <use xlink:href="#DejaVuSans-Bold-6d" x="191.308594"/>
     <use xlink:href="#DejaVuSans-Bold-70" x="295.507812"/>
     <use xlink:href="#DejaVuSans-Bold-74" x="367.089844"/>
     <use xlink:href="#DejaVuSans-Bold-20" x="414.892578"/>
     <use xlink:href="#DejaVuSans-Bold-50" x="449.707031"/>
     <use xlink:href="#DejaVuSans-Bold-72" x="522.998047"/>
     <use xlink:href="#DejaVuSans-Bold-6f" x="572.314453"/>
     <use xlink:href="#DejaVuSans-Bold-63" x="641.015625"/>
     <use xlink:href="#DejaVuSans-Bold-65" x="700.292969"/>
     <use xlink:href="#DejaVuSans-Bold-73" x="768.115234"/>
     <use xlink:href="#DejaVuSans-Bold-73" x="827.636719"/>
     <use xlink:href="#DejaVuSans-Bold-69" x="887.158203"/>
     <use xlink:href="#DejaVuSans-Bold-6e" x="921.435547"/>
     <use xlink:href="#DejaVuSans-Bold-67" x="992.626953"/>
     <use xlink:href="#DejaVuSans-Bold-20" x="1064.208984"/>
     <use xlink:href="#DejaVuSans-Bold-53" x="1099.023438"/>
     <use xlink:href="#DejaVuSans-Bold-70" x="1171.044922"/>
     <use xlink:href="#DejaVuSans-Bold-65" x="1242.626953"/>
     <use xlink:href="#DejaVuSans-Bold-65" x="1310.449219"/>
     <use xlink:href="#DejaVuSans-Bold-64" x="1378.271484"/>
     <use xlink:href="#DejaVuSans-Bold-20" x="1449.853516"/>
     <use xlink:href="#DejaVuSans-Bold-76" x="1484.667969"/>
     <use xlink:href="#DejaVuSans-Bold-73" x="1549.853516"/>
     <use xlink:href="#DejaVuSans-Bold-20" x="1609.375"/>
     <use xlink:href="#DejaVuSans-Bold-43" x="1644.189453"/>
     <use xlink:href="#DejaVuSans-Bold-6f" x="1717.578125"/>
     <use xlink:href="#DejaVuSans-Bold-6e" x="1786.279297"/>
     <use xlink:href="#DejaVuSans-Bold-74" x="1857.470703"/>
     <use xlink:href="#DejaVuSans-Bold-65" x="1905.273438"/>
     <use xlink:href="#DejaVuSans-Bold-78" x="1973.095703"/>
     <use xlink:href="#DejaVuSans-Bold-74" x="2037.597656"/>
     <use xlink:href="#DejaVuSans-Bold-20" x="2085.400391"/>
     <use xlink:href="#DejaVuSans-Bold-53" x="2120.214844"/>
     <use xlink:href="#DejaVuSans-Bold-69" x="2192.236328"/>
     <use xlink:href="#DejaVuSans-Bold-7a" x="2226.513672"/>
     <use xlink:href="#DejaVuSans-Bold-65" x="2284.716797"/>
    </g>
   </g>
   <g id="legend_2">
    <g id="patch_13">
     <path d="M 683.106875 543.590625 
L 843.30375 543.590625 
Q 845.30375 543.590625 845.30375 541.590625 
L 845.30375 469.2 
Q 845.30375 467.2 843.30375 467.2 
L 683.106875 467.2 
Q 681.106875 467.2 681.106875 469.2 
L 681.106875 541.590625 
Q 681.106875 543.590625 683.106875 543.590625 
z
" style="fill: #ffffff; opacity: 0.8; stroke: #cccccc; stroke-linejoin: miter"/>
    </g>
    <g id="line2d_64">
     <path d="M 685.106875 475.298437 
L 695.106875 475.298437 
L 705.106875 475.298437 
" style="fill: none; stroke: #8fd694; stroke-width: 2; stroke-linecap: square"/>
     <g>
      <use xlink:href="#m18d7d28df7" x="695.106875" y="475.298437" style="fill: #8fd694; stroke: #8fd694"/>
     </g>
    </g>
    <g id="text_29">
     <!-- GPT-OSS 120B MXFP4 -->
     <g transform="translate(713.106875 478.798437) scale(0.1 -0.1)">
      <use xlink:href="#DejaVuSans-47"/>
      <use xlink:href="#DejaVuSans-50" x="77.490234"/>
      <use xlink:href="#DejaVuSans-54" x="137.792969"/>
      <use xlink:href="#DejaVuSans-2d" x="189.751953"/>
      <use xlink:href="#DejaVuSans-4f" x="228.585938"/>
      <use xlink:href="#DejaVuSans-53" x="307.296875"/>
      <use xlink:href="#DejaVuSans-53" x="370.773438"/>
      <use xlink:href="#DejaVuSans-20" x="434.25"/>
      <use xlink:href="#DejaVuSans-31" x="466.037109"/>
      <use xlink:href="#DejaVuSans-32" x="529.660156"/>
      <use xlink:href="#DejaVuSans-30" x="593.283203"/>
      <use xlink:href="#DejaVuSans-42" x="656.90625"/>
      <use xlink:href="#DejaVuSans-20" x="725.509766"/>
      <use xlink:href="#DejaVuSans-4d" x="757.296875"/>
      <use xlink:href="#DejaVuSans-58" x="843.576172"/>
      <use xlink:href="#DejaVuSans-46" x="912.082031"/>
      <use xlink:href="#DejaVuSans-50" x="969.601562"/>
      <use xlink:href="#DejaVuSans-34" x="1029.904297"/>
     </g>
    </g>
    <g id="line2d_65">
     <path d="M 685.106875 489.976562 
L 695.106875 489.976562 
L 705.106875 489.976562 
" style="fill: none; stroke: #a39cf4; stroke-width: 2; stroke-linecap: square"/>
     <g>
      <use xlink:href="#m7d6267a7b5" x="695.106875" y="489.976562" style="fill: #a39cf4; stroke: #a39cf4"/>
     </g>
    </g>
    <g id="text_30">
     <!-- Magistral Small 2509 4bit -->
     <g transform="translate(713.106875 493.476562) scale(0.1 -0.1)">
      <use xlink:href="#DejaVuSans-4d"/>
      <use xlink:href="#DejaVuSans-61" x="86.279297"/>
      <use xlink:href="#DejaVuSans-67" x="147.558594"/>
      <use xlink:href="#DejaVuSans-69" x="211.035156"/>
      <use xlink:href="#DejaVuSans-73" x="238.818359"/>
      <use xlink:href="#DejaVuSans-74" x="290.917969"/>
      <use xlink:href="#DejaVuSans-72" x="330.126953"/>
      <use xlink:href="#DejaVuSans-61" x="371.240234"/>
      <use xlink:href="#DejaVuSans-6c" x="432.519531"/>
      <use xlink:href="#DejaVuSans-20" x="460.302734"/>
      <use xlink:href="#DejaVuSans-53" x="492.089844"/>
      <use xlink:href="#DejaVuSans-6d" x="555.566406"/>
      <use xlink:href="#DejaVuSans-61" x="652.978516"/>
      <use xlink:href="#DejaVuSans-6c" x="714.257812"/>
      <use xlink:href="#DejaVuSans-6c" x="742.041016"/>
      <use xlink:href="#DejaVuSans-20" x="769.824219"/>
      <use xlink:href="#DejaVuSans-32" x="801.611328"/>
      <use xlink:href="#DejaVuSans-35" x="865.234375"/>
      <use xlink:href="#DejaVuSans-30" x="928.857422"/>
      <use xlink:href="#DejaVuSans-39" x="992.480469"/>
      <use xlink:href="#DejaVuSans-20" x="1056.103516"/>
      <use xlink:href="#DejaVuSans-34" x="1087.890625"/>
      <use xlink:href="#DejaVuSans-62" x="1151.513672"/>
      <use xlink:href="#DejaVuSans-69" x="1214.990234"/>
      <use xlink:href="#DejaVuSans-74" x="1242.773438"/>
     </g>
    </g>
    <g id="line2d_66">
     <path d="M 685.106875 504.654687 
L 695.106875 504.654687 
L 705.106875 504.654687 
" style="fill: none; stroke: #a0e7e5; stroke-width: 2; stroke-linecap: square"/>
     <g>
      <use xlink:href="#ma68f00b805" x="695.106875" y="504.654687" style="fill: #a0e7e5; stroke: #a0e7e5"/>
     </g>
    </g>
    <g id="text_31">
     <!-- Qwen 3 4B 2507 4bit -->
     <g transform="translate(713.106875 508.154687) scale(0.1 -0.1)">
      <use xlink:href="#DejaVuSans-51"/>
      <use xlink:href="#DejaVuSans-77" x="78.710938"/>
      <use xlink:href="#DejaVuSans-65" x="160.498047"/>
      <use xlink:href="#DejaVuSans-6e" x="222.021484"/>
      <use xlink:href="#DejaVuSans-20" x="285.400391"/>
      <use xlink:href="#DejaVuSans-33" x="317.1875"/>
      <use xlink:href="#DejaVuSans-20" x="380.810547"/>
      <use xlink:href="#DejaVuSans-34" x="412.597656"/>
      <use xlink:href="#DejaVuSans-42" x="476.220703"/>
      <use xlink:href="#DejaVuSans-20" x="544.824219"/>
      <use xlink:href="#DejaVuSans-32" x="576.611328"/>
      <use xlink:href="#DejaVuSans-35" x="640.234375"/>
      <use xlink:href="#DejaVuSans-30" x="703.857422"/>
      <use xlink:href="#DejaVuSans-37" x="767.480469"/>
      <use xlink:href="#DejaVuSans-20" x="831.103516"/>
      <use xlink:href="#DejaVuSans-34" x="862.890625"/>
      <use xlink:href="#DejaVuSans-62" x="926.513672"/>
      <use xlink:href="#DejaVuSans-69" x="989.990234"/>
      <use xlink:href="#DejaVuSans-74" x="1017.773438"/>
     </g>
    </g>
    <g id="line2d_67">
     <path d="M 685.106875 519.332812 
L 695.106875 519.332812 
L 705.106875 519.332812 
" style="fill: none; stroke: #f28e8e; stroke-width: 2; stroke-linecap: square"/>
     <g>
      <use xlink:href="#mf7f330645d" x="695.106875" y="519.332812" style="fill: #f28e8e; stroke: #f28e8e"/>
     </g>
    </g>
    <g id="text_32">
     <!-- Qwen 3 Next 80B 4bit -->
     <g transform="translate(713.106875 522.832812) scale(0.1 -0.1)">
      <use xlink:href="#DejaVuSans-51"/>
      <use xlink:href="#DejaVuSans-77" x="78.710938"/>
      <use xlink:href="#DejaVuSans-65" x="160.498047"/>
      <use xlink:href="#DejaVuSans-6e" x="222.021484"/>
      <use xlink:href="#DejaVuSans-20" x="285.400391"/>
      <use xlink:href="#DejaVuSans-33" x="317.1875"/>
      <use xlink:href="#DejaVuSans-20" x="380.810547"/>
      <use xlink:href="#DejaVuSans-4e" x="412.597656"/>
      <use xlink:href="#DejaVuSans-65" x="487.402344"/>
      <use xlink:href="#DejaVuSans-78" x="547.175781"/>
      <use xlink:href="#DejaVuSans-74" x="606.355469"/>
      <use xlink:href="#DejaVuSans-20" x="645.564453"/>
      <use xlink:href="#DejaVuSans-38" x="677.351562"/>
      <use xlink:href="#DejaVuSans-30" x="740.974609"/>
      <use xlink:href="#DejaVuSans-42" x="804.597656"/>
      <use xlink:href="#DejaVuSans-20" x="873.201172"/>
      <use xlink:href="#DejaVuSans-34" x="904.988281"/>
      <use xlink:href="#DejaVuSans-62" x="968.611328"/>
      <use xlink:href="#DejaVuSans-69" x="1032.087891"/>
      <use xlink:href="#DejaVuSans-74" x="1059.871094"/>
     </g>
    </g>
    <g id="line2d_68">
     <path d="M 685.106875 534.010937 
L 695.106875 534.010937 
L 705.106875 534.010937 
" style="fill: none; stroke: #f6c78f; stroke-width: 2; stroke-linecap: square"/>
     <g>
      <use xlink:href="#mf19c5d5004" x="695.106875" y="534.010937" style="fill: #f6c78f; stroke: #f6c78f"/>
     </g>
    </g>
    <g id="text_33">
     <!-- GPT-OSS 20B MXFP4 -->
     <g transform="translate(713.106875 537.510937) scale(0.1 -0.1)">
      <use xlink:href="#DejaVuSans-47"/>
      <use xlink:href="#DejaVuSans-50" x="77.490234"/>
      <use xlink:href="#DejaVuSans-54" x="137.792969"/>
      <use xlink:href="#DejaVuSans-2d" x="189.751953"/>
      <use xlink:href="#DejaVuSans-4f" x="228.585938"/>
      <use xlink:href="#DejaVuSans-53" x="307.296875"/>
      <use xlink:href="#DejaVuSans-53" x="370.773438"/>
      <use xlink:href="#DejaVuSans-20" x="434.25"/>
      <use xlink:href="#DejaVuSans-32" x="466.037109"/>
      <use xlink:href="#DejaVuSans-30" x="529.660156"/>
      <use xlink:href="#DejaVuSans-42" x="593.283203"/>
      <use xlink:href="#DejaVuSans-20" x="661.886719"/>
      <use xlink:href="#DejaVuSans-4d" x="693.673828"/>
      <use xlink:href="#DejaVuSans-58" x="779.953125"/>
      <use xlink:href="#DejaVuSans-46" x="848.458984"/>
      <use xlink:href="#DejaVuSans-50" x="905.978516"/>
      <use xlink:href="#DejaVuSans-34" x="966.28125"/>
     </g>
    </g>
   </g>
  </g>
  <g id="text_34">
   <!-- LM Studio Benchmark - M3 Max MacBook Pro 128GB -->
   <g transform="translate(193.31625 19.3575) scale(0.16 -0.16)">
    <defs>
     <path id="DejaVuSans-Bold-4c" d="M 588 4666 
L 1791 4666 
L 1791 909 
L 3903 909 
L 3903 0 
L 588 0 
L 588 4666 
z
" transform="scale(0.015625)"/>
     <path id="DejaVuSans-Bold-4d" d="M 588 4666 
L 2119 4666 
L 3181 2169 
L 4250 4666 
L 5778 4666 
L 5778 0 
L 4641 0 
L 4641 3413 
L 3566 897 
L 2803 897 
L 1728 3413 
L 1728 0 
L 588 0 
L 588 4666 
z
" transform="scale(0.015625)"/>
     <path id="DejaVuSans-Bold-75" d="M 500 1363 
L 500 3500 
L 1625 3500 
L 1625 3150 
Q 1625 2866 1622 2436 
Q 1619 2006 1619 1863 
Q 1619 1441 1641 1255 
Q 1663 1069 1716 984 
Q 1784 875 1895 815 
Q 2006 756 2150 756 
Q 2500 756 2700 1025 
Q 2900 1294 2900 1772 
L 2900 3500 
L 4019 3500 
L 4019 0 
L 2900 0 
L 2900 506 
Q 2647 200 2364 54 
Q 2081 -91 1741 -91 
Q 1134 -91 817 281 
Q 500 653 500 1363 
z
" transform="scale(0.015625)"/>
     <path id="DejaVuSans-Bold-42" d="M 2456 2859 
Q 2741 2859 2887 2984 
Q 3034 3109 3034 3353 
Q 3034 3594 2887 3720 
Q 2741 3847 2456 3847 
L 1791 3847 
L 1791 2859 
L 2456 2859 
z
M 2497 819 
Q 2859 819 3042 972 
Q 3225 1125 3225 1434 
Q 3225 1738 3044 1889 
Q 2863 2041 2497 2041 
L 1791 2041 
L 1791 819 
L 2497 819 
z
M 3616 2497 
Q 4003 2384 4215 2081 
Q 4428 1778 4428 1338 
Q 4428 663 3972 331 
Q 3516 0 2584 0 
L 588 0 
L 588 4666 
L 2394 4666 
Q 3366 4666 3802 4372 
Q 4238 4078 4238 3431 
Q 4238 3091 4078 2852 
Q 3919 2613 3616 2497 
z
" transform="scale(0.015625)"/>
     <path id="DejaVuSans-Bold-68" d="M 4056 2131 
L 4056 0 
L 2931 0 
L 2931 347 
L 2931 1625 
Q 2931 2084 2911 2256 
Q 2891 2428 2841 2509 
Q 2775 2619 2662 2680 
Q 2550 2741 2406 2741 
Q 2056 2741 1856 2470 
Q 1656 2200 1656 1722 
L 1656 0 
L 538 0 
L 538 4863 
L 1656 4863 
L 1656 2988 
Q 1909 3294 2193 3439 
Q 2478 3584 2822 3584 
Q 3428 3584 3742 3212 
Q 4056 2841 4056 2131 
z
" transform="scale(0.015625)"/>
     <path id="DejaVuSans-Bold-6b" d="M 538 4863 
L 1656 4863 
L 1656 2216 
L 2944 3500 
L 4244 3500 
L 2534 1894 
L 4378 0 
L 3022 0 
L 1656 1459 
L 1656 0 
L 538 0 
L 538 4863 
z
" transform="scale(0.015625)"/>
     <path id="DejaVuSans-Bold-2d" d="M 347 2297 
L 2309 2297 
L 2309 1388 
L 347 1388 
L 347 2297 
z
" transform="scale(0.015625)"/>
     <path id="DejaVuSans-Bold-33" d="M 2981 2516 
Q 3453 2394 3698 2092 
Q 3944 1791 3944 1325 
Q 3944 631 3412 270 
Q 2881 -91 1863 -91 
Q 1503 -91 1142 -33 
Q 781 25 428 141 
L 428 1069 
Q 766 900 1098 814 
Q 1431 728 1753 728 
Q 2231 728 2486 893 
Q 2741 1059 2741 1369 
Q 2741 1688 2480 1852 
Q 2219 2016 1709 2016 
L 1228 2016 
L 1228 2791 
L 1734 2791 
Q 2188 2791 2409 2933 
Q 2631 3075 2631 3366 
Q 2631 3634 2415 3781 
Q 2200 3928 1806 3928 
Q 1516 3928 1219 3862 
Q 922 3797 628 3669 
L 628 4550 
Q 984 4650 1334 4700 
Q 1684 4750 2022 4750 
Q 2931 4750 3382 4451 
Q 3834 4153 3834 3553 
Q 3834 3144 3618 2883 
Q 3403 2622 2981 2516 
z
" transform="scale(0.015625)"/>
     <path id="DejaVuSans-Bold-31" d="M 750 831 
L 1813 831 
L 1813 3847 
L 722 3622 
L 722 4441 
L 1806 4666 
L 2950 4666 
L 2950 831 
L 4013 831 
L 4013 0 
L 750 0 
L 750 831 
z
" transform="scale(0.015625)"/>
     <path id="DejaVuSans-Bold-32" d="M 1844 884 
L 3897 884 
L 3897 0 
L 506 0 
L 506 884 
L 2209 2388 
Q 2438 2594 2547 2791 
Q 2656 2988 2656 3200 
Q 2656 3528 2436 3728 
Q 2216 3928 1850 3928 
Q 1569 3928 1234 3808 
Q 900 3688 519 3450 
L 519 4475 
Q 925 4609 1322 4679 
Q 1719 4750 2100 4750 
Q 2938 4750 3402 4381 
Q 3866 4013 3866 3353 
Q 3866 2972 3669 2642 
Q 3472 2313 2841 1759 
L 1844 884 
z
" transform="scale(0.015625)"/>
     <path id="DejaVuSans-Bold-38" d="M 2228 2088 
Q 1891 2088 1709 1903 
Q 1528 1719 1528 1375 
Q 1528 1031 1709 848 
Q 1891 666 2228 666 
Q 2563 666 2741 848 
Q 2919 1031 2919 1375 
Q 2919 1722 2741 1905 
Q 2563 2088 2228 2088 
z
M 1350 2484 
Q 925 2613 709 2878 
Q 494 3144 494 3541 
Q 494 4131 934 4440 
Q 1375 4750 2228 4750 
Q 3075 4750 3515 4442 
Q 3956 4134 3956 3541 
Q 3956 3144 3739 2878 
Q 3522 2613 3097 2484 
Q 3572 2353 3814 2058 
Q 4056 1763 4056 1313 
Q 4056 619 3595 264 
Q 3134 -91 2228 -91 
Q 1319 -91 855 264 
Q 391 619 391 1313 
Q 391 1763 633 2058 
Q 875 2353 1350 2484 
z
M 1631 3419 
Q 1631 3141 1786 2991 
Q 1941 2841 2228 2841 
Q 2509 2841 2662 2991 
Q 2816 3141 2816 3419 
Q 2816 3697 2662 3845 
Q 2509 3994 2228 3994 
Q 1941 3994 1786 3844 
Q 1631 3694 1631 3419 
z
" transform="scale(0.015625)"/>
    </defs>
    <use xlink:href="#DejaVuSans-Bold-4c"/>
    <use xlink:href="#DejaVuSans-Bold-4d" x="63.720703"/>
    <use xlink:href="#DejaVuSans-Bold-20" x="163.232422"/>
    <use xlink:href="#DejaVuSans-Bold-53" x="198.046875"/>
    <use xlink:href="#DejaVuSans-Bold-74" x="270.068359"/>
    <use xlink:href="#DejaVuSans-Bold-75" x="317.871094"/>
    <use xlink:href="#DejaVuSans-Bold-64" x="389.0625"/>
    <use xlink:href="#DejaVuSans-Bold-69" x="460.644531"/>
    <use xlink:href="#DejaVuSans-Bold-6f" x="494.921875"/>
    <use xlink:href="#DejaVuSans-Bold-20" x="563.623047"/>
    <use xlink:href="#DejaVuSans-Bold-42" x="598.4375"/>
    <use xlink:href="#DejaVuSans-Bold-65" x="674.658203"/>
    <use xlink:href="#DejaVuSans-Bold-6e" x="742.480469"/>
    <use xlink:href="#DejaVuSans-Bold-63" x="813.671875"/>
    <use xlink:href="#DejaVuSans-Bold-68" x="872.949219"/>
    <use xlink:href="#DejaVuSans-Bold-6d" x="944.140625"/>
    <use xlink:href="#DejaVuSans-Bold-61" x="1048.339844"/>
    <use xlink:href="#DejaVuSans-Bold-72" x="1115.820312"/>
    <use xlink:href="#DejaVuSans-Bold-6b" x="1165.136719"/>
    <use xlink:href="#DejaVuSans-Bold-20" x="1231.640625"/>
    <use xlink:href="#DejaVuSans-Bold-2d" x="1266.455078"/>
    <use xlink:href="#DejaVuSans-Bold-20" x="1307.958984"/>
    <use xlink:href="#DejaVuSans-Bold-4d" x="1342.773438"/>
    <use xlink:href="#DejaVuSans-Bold-33" x="1442.285156"/>
    <use xlink:href="#DejaVuSans-Bold-20" x="1511.865234"/>
    <use xlink:href="#DejaVuSans-Bold-4d" x="1546.679688"/>
    <use xlink:href="#DejaVuSans-Bold-61" x="1646.191406"/>
    <use xlink:href="#DejaVuSans-Bold-78" x="1713.671875"/>
    <use xlink:href="#DejaVuSans-Bold-20" x="1778.173828"/>
    <use xlink:href="#DejaVuSans-Bold-4d" x="1812.988281"/>
    <use xlink:href="#DejaVuSans-Bold-61" x="1912.5"/>
    <use xlink:href="#DejaVuSans-Bold-63" x="1979.980469"/>
    <use xlink:href="#DejaVuSans-Bold-42" x="2039.257812"/>
    <use xlink:href="#DejaVuSans-Bold-6f" x="2115.478516"/>
    <use xlink:href="#DejaVuSans-Bold-6f" x="2184.179688"/>
    <use xlink:href="#DejaVuSans-Bold-6b" x="2252.880859"/>
    <use xlink:href="#DejaVuSans-Bold-20" x="2319.384766"/>
    <use xlink:href="#DejaVuSans-Bold-50" x="2354.199219"/>
    <use xlink:href="#DejaVuSans-Bold-72" x="2427.490234"/>
    <use xlink:href="#DejaVuSans-Bold-6f" x="2476.806641"/>
    <use xlink:href="#DejaVuSans-Bold-20" x="2545.507812"/>
    <use xlink:href="#DejaVuSans-Bold-31" x="2580.322266"/>
    <use xlink:href="#DejaVuSans-Bold-32" x="2649.902344"/>
    <use xlink:href="#DejaVuSans-Bold-38" x="2719.482422"/>
    <use xlink:href="#DejaVuSans-Bold-47" x="2789.0625"/>
    <use xlink:href="#DejaVuSans-Bold-42" x="2871.142578"/>
   </g>
  </g>
 </g>
 <defs>
  <clipPath id="pb3478cd117">
   <rect x="55.26375" y="79.44" width="795.04" height="349.04"/>
  </clipPath>
  <clipPath id="p1a5c37fcc7">
   <rect x="55.26375" y="462.2" width="795.04" height="349.04"/>
  </clipPath>
 </defs>
</svg>
